<svg xmlns="http://www.w3.org/2000/svg" viewBox="0 0 24 24"><title>Untitled-3</title><path d="M20.263,2.438H18.75a0.5,0.5,0,0,0,0,1h1.513A1.983,1.983,0,0,1,22.25,5.458V7.938H1.75V5.458A2.047,2.047,0,0,1,3.818,3.438H5.25a0.5,0.5,0,0,0,0-1H3.818A3.048,3.048,0,0,0,.75,5.458V19.91a3.051,3.051,0,0,0,3.068,3.027H20.263A3.011,3.011,0,0,0,23.25,19.91V5.458A2.972,2.972,0,0,0,20.263,2.438Zm0,19.5H3.818A2.05,2.05,0,0,1,1.75,19.91V8.938h20.5V19.91A1.986,1.986,0,0,1,20.263,21.938Z"/><path d="M9.25,3.438h5.5a0.5,0.5,0,0,0,0-1H9.25A0.5,0.5,0,0,0,9.25,3.438Z"/><path d="M7.25,5.438a0.5,0.5,0,0,0,.5-0.5v-4a0.5,0.5,0,0,0-1,0v4A0.5,0.5,0,0,0,7.25,5.438Z"/><path d="M16.75,5.438a0.5,0.5,0,0,0,.5-0.5v-4a0.5,0.5,0,1,0-1,0v4A0.5,0.5,0,0,0,16.75,5.438Z"/></svg>