<svg xmlns="http://www.w3.org/2000/svg" viewBox="0 0 24 24"><title>Untitled-3</title><path d="M22.481,5.293a2.761,2.761,0,0,0-2.767-2.75H4.159A2.673,2.673,0,0,0,1.481,5.2v9.644a2.7,2.7,0,0,0,2.694,2.694h8.306v2.569a1.146,1.146,0,0,0,1.965.84l3.5-3.41H19.7a2.786,2.786,0,0,0,2.782-2.783V5.293Zm-1,9.467A1.785,1.785,0,0,1,19.7,16.543H17.745a0.5,0.5,0,0,0-.349.142l-3.654,3.557a0.161,0.161,0,0,1-.113.056,0.163,0.163,0,0,1-.149-0.186V17.043a0.5,0.5,0,0,0-.5-0.5H4.175a1.7,1.7,0,0,1-1.694-1.694V5.2A1.672,1.672,0,0,1,4.159,3.543H19.715a1.76,1.76,0,0,1,1.767,1.75v9.467Z"/></svg>