<svg xmlns="http://www.w3.org/2000/svg" viewBox="0 0 24 24"><title>Untitled-3</title><path d="M3.125,4.363h1.25V20.107a3.009,3.009,0,0,0,3,3.006h9.251a3.009,3.009,0,0,0,3-3.006V4.363h1.25a0.5,0.5,0,0,0,0-1H19.2a0.356,0.356,0,0,0-.14,0h-2.93v0a2.517,2.517,0,0,0-2.6-2.5H10.789a2.571,2.571,0,0,0-2.664,2.5v0H4.945a0.356,0.356,0,0,0-.141,0H3.125A0.5,0.5,0,0,0,3.125,4.363Zm15.5,15.744a2.007,2.007,0,0,1-2,2.006H7.374a2.007,2.007,0,0,1-2-2.006V4.363h13.25V20.107ZM9.125,3.359a1.572,1.572,0,0,1,1.664-1.5h2.734a1.517,1.517,0,0,1,1.6,1.5v0Z"/><path d="M8.625,7.113a0.5,0.5,0,0,0-.5.5v11.25a0.5,0.5,0,0,0,1,0V7.613A0.5,0.5,0,0,0,8.625,7.113Z"/><path d="M12.125,7.113a0.5,0.5,0,0,0-.5.5v11.25a0.5,0.5,0,0,0,1,0V7.613A0.5,0.5,0,0,0,12.125,7.113Z"/><path d="M15.125,7.613v11.25a0.5,0.5,0,0,0,1,0V7.613A0.5,0.5,0,0,0,15.125,7.613Z"/></svg>