<svg xmlns="http://www.w3.org/2000/svg" viewBox="0 0 24 24"><title>Untitled-3</title><path d="M23.791,20.408V6.1a2.086,2.086,0,0,0-.645-1.455l-3.475-3.5A2.134,2.134,0,0,0,18.2.5H3.887a3.161,3.161,0,0,0-3.1,3.1V20.417A3.147,3.147,0,0,0,3.873,23.5H20.7A3.156,3.156,0,0,0,23.791,20.408ZM7.541,1.5h9.5V9.193a0.759,0.759,0,0,1-.7.807H8.236a0.759,0.759,0,0,1-.7-0.807V1.5Zm0,21V16.378A0.829,0.829,0,0,1,8.247,15.5h8.088a0.829,0.829,0,0,1,.706.878V22.5h-9.5Zm15.25-2.091A2.156,2.156,0,0,1,20.7,22.5H18.041V16.378A1.823,1.823,0,0,0,16.334,14.5H8.247a1.823,1.823,0,0,0-1.706,1.878V22.5H3.873a2.147,2.147,0,0,1-2.083-2.083V3.6a2.161,2.161,0,0,1,2.1-2.1H6.541V9.193A1.758,1.758,0,0,0,8.236,11h8.11a1.758,1.758,0,0,0,1.7-1.807V1.5H18.2a1.094,1.094,0,0,1,.748.352l3.5,3.475a1.143,1.143,0,0,1,.352.769V20.408Z"/><path d="M14.541,8.5a0.5,0.5,0,0,0,.5-0.5V3.75a0.5,0.5,0,1,0-1,0V8A0.5,0.5,0,0,0,14.541,8.5Z"/></svg>