<svg xmlns="http://www.w3.org/2000/svg" viewBox="0 0 24 24"><title>Untitled-3</title><path d="M1.338,20.213a0.5,0.5,0,1,0,1,0,7.231,7.231,0,0,1,4.981-6.829,5.311,5.311,0,0,0,4.442,0,7.213,7.213,0,0,1,4.973,6.833,0.5,0.5,0,0,0,1,0,8.23,8.23,0,0,0-4.894-7.49,5.37,5.37,0,1,0-6.6.006,8.242,8.242,0,0,0-4.9,7.484h0ZM5.165,8.5a4.37,4.37,0,1,1,4.37,4.37A4.375,4.375,0,0,1,5.165,8.5Z"/><path d="M21.912,11.341h-2.25V9.091a0.5,0.5,0,0,0-1,0v2.25h-2.5a0.5,0.5,0,0,0,0,1h2.5v2.25a0.5,0.5,0,1,0,1,0v-2.25h2.25A0.5,0.5,0,0,0,21.912,11.341Z"/></svg>