<svg xmlns="http://www.w3.org/2000/svg" viewBox="0 0 24 24"><title>Untitled-3</title><path d="M3.841,4.527h9.375a0.5,0.5,0,0,0,0-1H3.841c-1.019,0-2.375.22-2.375,2.125V20.4c0,1.9,1.356,2.125,2.375,2.125h14.25c1.02,0,2.375-.22,2.375-2.125V9.777a0.5,0.5,0,1,0-1,0V20.4c0,0.778-.2,1.125-1.375,1.125H3.841c-1.176,0-1.375-.347-1.375-1.125V5.652C2.466,4.874,2.665,4.527,3.841,4.527Z"/><path d="M19.509,1.054a0.982,0.982,0,0,0-.173.012,0.554,0.554,0,0,0-.271.14L15.61,4.66,8.434,11.77a0.5,0.5,0,0,0-.142.278L7.812,15.1a0.5,0.5,0,0,0,.494.578,0.512,0.512,0,0,0,.065,0l2.912-.38a0.5,0.5,0,0,0,.418-0.1,0.469,0.469,0,0,0,.059-0.057c0.008-.007.017-0.01,0.025-0.017l10.6-10.6a0.5,0.5,0,0,0,.139-0.271,2.669,2.669,0,0,0-1-2.185A2.934,2.934,0,0,0,19.509,1.054ZM9.265,14.22A1.35,1.35,0,0,0,9,14.009l0.2-1.278a2.751,2.751,0,0,1,1.033.707,2.376,2.376,0,0,1,.606.906l-1.322.172A2.277,2.277,0,0,0,9.265,14.22Zm2.429-.419a3.537,3.537,0,0,0-.757-1.07,4.021,4.021,0,0,0-1.186-.857l6.565-6.505,3.306-3.306a2.216,2.216,0,0,1,1.192.711,2.228,2.228,0,0,1,.713,1.191Z"/></svg>