<?xml version="1.0" encoding="utf-8"?>
<!-- Generator: Adobe Illustrator 19.2.1, SVG Export Plug-In . SVG Version: 6.00 Build 0)  -->
<!DOCTYPE svg PUBLIC "-//W3C//DTD SVG 1.1//EN" "http://www.w3.org/Graphics/SVG/1.1/DTD/svg11.dtd">
<svg version="1.1" id="Layer_1" xmlns="http://www.w3.org/2000/svg" xmlns:xlink="http://www.w3.org/1999/xlink" x="0px" y="0px"
	 viewBox="0 0 24 24" enable-background="new 0 0 24 24" xml:space="preserve">
<title>Untitled-3</title>
<path d="M20.7,12.3c1.4-1.4,1.5-3.7,0.1-5.1c-1.4-1.4-3.7-1.5-5.1-0.1s-1.5,3.7-0.1,5.1c0,0,0.1,0.1,0.1,0.1c-0.8,0.4-1.4,0.9-2,1.6
	c-0.6-0.5-1.3-1-2.1-1.3c2.2-1.8,2.6-5.2,0.7-7.4S7.2,2.6,5,4.5s-2.6,5.2-0.7,7.4c0.2,0.3,0.4,0.5,0.7,0.7c-3,1.3-4.9,4.3-4.9,7.5
	c0,0.3,0.2,0.5,0.5,0.5s0.5-0.2,0.5-0.5c0-3.1,2-5.8,4.9-6.8c1.5,0.7,3.2,0.7,4.6,0c2.9,1,4.9,3.7,4.9,6.8c0,0.3,0.2,0.5,0.5,0.5
	s0.5-0.2,0.5-0.5c0-2-0.8-4-2.1-5.5c0.6-0.8,1.3-1.4,2.2-1.7c1,0.4,2.1,0.4,3,0c1.9,0.6,3.1,2.4,3.1,4.4c0,0.3,0.2,0.5,0.5,0.5
	s0.5-0.2,0.5-0.5C23.9,15.2,22.7,13.2,20.7,12.3z M6.5,12.3c-0.1-0.1-0.2-0.1-0.3-0.1c-2-1.2-2.7-3.8-1.5-5.8s3.8-2.7,5.8-1.5
	s2.7,3.8,1.5,5.8c-0.4,0.6-0.9,1.2-1.6,1.6c-0.1,0-0.1,0.1-0.2,0.1C9.1,12.9,7.7,12.9,6.5,12.3L6.5,12.3z M17.1,12.1
	C17.1,12.1,17.1,12.1,17.1,12.1c-1.4-0.6-1.9-2.2-1.3-3.6c0.6-1.3,2.2-1.9,3.5-1.3s1.9,2.2,1.3,3.5C20,12.1,18.4,12.7,17.1,12.1
	L17.1,12.1z"/>
</svg>
