<svg xmlns="http://www.w3.org/2000/svg" viewBox="0 0 24 24"><title>Untitled-3</title><path d="M17.14,18.972a0.5,0.5,0,0,0,.707.014,8.276,8.276,0,0,0,0-11.971,0.5,0.5,0,1,0-.694.72,7.276,7.276,0,0,1,0,10.53A0.5,0.5,0,0,0,17.14,18.972Z"/><path d="M13,4.7A8.421,8.421,0,0,0,6.055,7.1a8.264,8.264,0,0,0-2.508,6.023A8.131,8.131,0,0,0,6.158,18.99a0.5,0.5,0,0,0,.684-0.73,7.14,7.14,0,0,1-2.3-5.149,7.272,7.272,0,0,1,2.211-5.3,7.424,7.424,0,0,1,6.123-2.12A0.5,0.5,0,1,0,13,4.7Z"/><path d="M15.449,5.666a0.5,0.5,0,0,0-.658.26l-2.377,5.489a2.258,2.258,0,1,0,.917.4l2.378-5.491A0.5,0.5,0,0,0,15.449,5.666ZM12,14.875a1.25,1.25,0,1,1,1.25-1.25A1.251,1.251,0,0,1,12,14.875Z"/><path d="M12,1.375A11.907,11.907,0,0,0,.25,13.125a11.832,11.832,0,0,0,3.6,8.357,0.5,0.5,0,0,0,.7-0.714,10.825,10.825,0,0,1-3.3-7.643A10.894,10.894,0,0,1,12,2.375a10.894,10.894,0,0,1,10.75,10.75,10.652,10.652,0,0,1-3.255,7.643,0.5,0.5,0,0,0,.7.714,11.646,11.646,0,0,0,3.555-8.357A11.907,11.907,0,0,0,12,1.375Z"/></svg>