<svg xmlns="http://www.w3.org/2000/svg" viewBox="0 0 22.5 16.75"><title>icon-mail</title><path d="M3.749,20.375h16.5a3,3,0,0,0,3-3V6.624a3,3,0,0,0-3-3H3.75a3,3,0,0,0-3,3V17.376A3,3,0,0,0,3.749,20.375Zm-2-13.75a2,2,0,0,1,2-2h16.5a2,2,0,0,1,2,2V17.376a2,2,0,0,1-2,2H3.75a2,2,0,0,1-2-2V6.625Z" transform="translate(-0.75 -3.625)"/><path d="M3.915,7.679l7.858,5.1a0.5,0.5,0,0,0,.547,0l7.767-5.1a0.5,0.5,0,0,0-.549-0.836l-7.494,4.921L4.46,6.84A0.5,0.5,0,0,0,3.915,7.679Z" transform="translate(-0.75 -3.625)"/></svg>