<?xml version="1.0" encoding="utf-8"?>
<!-- Generator: Adobe Illustrator 19.2.1, SVG Export Plug-In . SVG Version: 6.00 Build 0)  -->
<!DOCTYPE svg PUBLIC "-//W3C//DTD SVG 1.1//EN" "http://www.w3.org/Graphics/SVG/1.1/DTD/svg11.dtd">
<svg version="1.1" id="Layer_1" xmlns="http://www.w3.org/2000/svg" xmlns:xlink="http://www.w3.org/1999/xlink" x="0px" y="0px"
	 viewBox="0 0 24 24" enable-background="new 0 0 24 24" xml:space="preserve">
<title>Untitled-3</title>
<g transform="translate(0 0)">
	<g id="icon-phone">
		<path d="M3.1,22c0.2,0.1,0.3,0.3,0.5,0.4C3.9,22.8,4.6,23,5.6,23c2.7,0,7.3-1.8,11.4-5.8c2.4-2.4,4.3-5.3,5.3-8
			c0.9-2.5,0.9-4.6,0-5.5c-0.2-0.2-0.4-0.4-0.6-0.7C20.8,2.1,19.8,1,18.5,1c-0.8,0-1.6,0.5-2.3,1.4C13.7,5.5,14,6.3,15.7,8
			c0.1,0.1,0.2,0.2,0.3,0.3c0.4,0.4-0.6,2.7-3,5.1c-1.7,1.7-3.7,3-4.7,3c-0.2,0-0.3-0.1-0.3-0.1C8,16.1,7.9,16,7.8,15.9
			c-0.6-0.6-1.3-1.3-2.2-1.3c-0.9,0-1.8,0.5-3.1,1.7c-0.9,0.9-1.4,1.7-1.3,2.6C1.1,20.2,2.2,21.2,3.1,22z M3.2,17.1
			c1-1,1.8-1.5,2.4-1.5c0.5,0,0.9,0.4,1.5,1c0.1,0.1,0.2,0.2,0.3,0.3c0.2,0.2,0.5,0.4,1,0.4c1.5,0,3.7-1.6,5.4-3.3
			c1.1-1.1,2-2.3,2.6-3.4c0.8-1.4,0.9-2.5,0.3-3.1c-0.1-0.1-0.2-0.2-0.3-0.3C15.1,5.9,14.8,5.7,17,3c0.5-0.7,1.1-1,1.6-1
			c0.8,0,1.6,0.9,2.3,1.7c0.2,0.3,0.4,0.5,0.6,0.7c0.5,0.5,0.6,2.1-0.2,4.4c-0.9,2.6-2.7,5.3-5.1,7.7C12.3,20.3,8.1,22,5.6,22
			c-0.9,0-1.3-0.2-1.4-0.3c-0.1-0.1-0.3-0.3-0.5-0.4c-0.7-0.7-1.6-1.4-1.6-2.3C2.1,18.4,2.5,17.7,3.2,17.1z"/>
	</g>
</g>
</svg>
