<svg xmlns="http://www.w3.org/2000/svg" viewBox="0 0 24 24"><title>Untitled-3</title><path d="M4.686,19.5a9.708,9.708,0,0,0,6.914,2.87q0.209,0,.42-0.009A10.554,10.554,0,0,0,22.369,12,10.369,10.369,0,0,0,1.631,12,10.655,10.655,0,0,0,4.686,19.5ZM12,2.627A9.379,9.379,0,0,1,21.369,12a9.558,9.558,0,0,1-9.389,9.369c-0.127.005-.254,0.008-0.38,0.008A8.714,8.714,0,0,1,5.394,18.8,9.647,9.647,0,0,1,2.631,12,9.39,9.39,0,0,1,12,2.627Z"/><path d="M8.4,15.7a0.5,0.5,0,0,0,.252-0.068l4.215-2.458a0.5,0.5,0,0,0,.248-0.432V6.377a0.5,0.5,0,0,0-1,0v6.081L8.152,14.772A0.5,0.5,0,0,0,8.4,15.7Z"/></svg>