<svg xmlns="http://www.w3.org/2000/svg" viewBox="0 0 24 24"><title>Untitled-3</title><path d="M23.25,18.44V10.608a2.64,2.64,0,0,0-1.24-2.257,0.5,0.5,0,0,0-.519.855,1.636,1.636,0,0,1,.759,1.4V18.44A1.577,1.577,0,0,1,20.66,20H6.233A1.54,1.54,0,0,1,4.9,19.244a0.5,0.5,0,0,0-.858.513A2.532,2.532,0,0,0,6.233,21H20.66A2.578,2.578,0,0,0,23.25,18.44Z"/><path d="M1.6,17.369A2.482,2.482,0,0,0,3.263,18H17.69a2.563,2.563,0,0,0,2.56-2.56V7.608A2.587,2.587,0,0,0,17.69,5H11.095a1.326,1.326,0,0,1-1.14-.753A2.52,2.52,0,0,0,7.763,3h-4.5A2.352,2.352,0,0,0,.75,5.341v10.41A2.2,2.2,0,0,0,1.6,17.369ZM3.33,17a1.7,1.7,0,0,1-1.059-.374A1.571,1.571,0,0,1,1.75,15.44V11.294A1.425,1.425,0,0,1,3.33,9.75H7.949a2.607,2.607,0,0,0,2.187-1.089A1.388,1.388,0,0,1,11.313,8h6.356A1.642,1.642,0,0,1,19.25,9.656V15.42A1.582,1.582,0,0,1,17.669,17H3.33ZM3.263,4h4.5a1.566,1.566,0,0,1,1.4.853A2.283,2.283,0,0,0,11.095,6h6.595a1.6,1.6,0,0,1,1.559,1.576A2.505,2.505,0,0,0,17.669,7H11.313A2.35,2.35,0,0,0,9.385,8a1.64,1.64,0,0,1-1.436.749H3.319A2.645,2.645,0,0,0,1.75,9.2V5.341A1.356,1.356,0,0,1,3.263,4Z"/></svg>