<svg xmlns="http://www.w3.org/2000/svg" viewBox="0 0 24 24"><title>Untitled-3</title><path d="M12,1.615A10.391,10.391,0,0,0,1.631,11.983,10.655,10.655,0,0,0,4.686,19.49,9.708,9.708,0,0,0,11.6,22.36q0.209,0,.42-0.009A10.554,10.554,0,0,0,22.369,11.984,10.38,10.38,0,0,0,12,1.615ZM11.98,21.353c-0.127.005-.254,0.008-0.38,0.008A8.7,8.7,0,0,1,6,19.339c0-.01,0-0.02,0-0.03a5.784,5.784,0,0,1,3.848-5.624,4.217,4.217,0,0,0,3.864,0,5.923,5.923,0,0,1,4.013,5.6A10.049,10.049,0,0,1,11.98,21.353Zm-0.194-8.2A3.256,3.256,0,1,1,15.041,9.9,3.26,3.26,0,0,1,11.785,13.153Zm6.887,5.3a6.941,6.941,0,0,0-3.978-5.456,4.256,4.256,0,1,0-5.818,0,6.747,6.747,0,0,0-3.815,5.436,9.681,9.681,0,0,1-2.43-6.448,9.368,9.368,0,1,1,18.737,0,9.135,9.135,0,0,1-2.7,6.468h0Z"/></svg>