<svg xmlns="http://www.w3.org/2000/svg" viewBox="0 0 24 24"><title>Untitled-3</title><path d="M20.53,5.287l-5.386-.679-0.215-1.03a0.5,0.5,0,0,0-.436-0.4L3.9,2.053,3.716,1.02a0.5,0.5,0,1,0-.985.173L6.573,22.98a0.5,0.5,0,0,0,.492.413,0.524,0.524,0,0,0,.088-0.007,0.5,0.5,0,0,0,.406-0.579L5.948,13.679l5.059-.887L11.287,14.3a0.5,0.5,0,0,0,.492.408,0.491,0.491,0,0,0,.1-0.01L22.094,12.59a0.5,0.5,0,0,0,.385-0.607L20.953,5.666A0.5,0.5,0,0,0,20.53,5.287ZM4.079,3.078l9.946,1.061L15.453,11l-9.679,1.7Zm8.1,10.534-0.185-.993,4.143-.726a0.5,0.5,0,0,0,.4-0.594L15.359,5.643l4.7,0.593,1.324,5.479Z"/></svg>