<?xml version="1.0" encoding="utf-8"?>
<!-- Generator: Adobe Illustrator 19.2.1, SVG Export Plug-In . SVG Version: 6.00 Build 0)  -->
<!DOCTYPE svg PUBLIC "-//W3C//DTD SVG 1.1//EN" "http://www.w3.org/Graphics/SVG/1.1/DTD/svg11.dtd">
<svg version="1.1" id="Layer_1" xmlns="http://www.w3.org/2000/svg" xmlns:xlink="http://www.w3.org/1999/xlink" x="0px" y="0px"
	 viewBox="0 0 24 24" enable-background="new 0 0 24 24" xml:space="preserve">
<rect fill="none" width="24" height="24"/>
<g>
	<g id="icon-subtract">
		<path d="M2.4,20.7c0,0.3,0.2,0.5,0.5,0.5h18.2c0.3,0,0.5-0.2,0.5-0.5s-0.2-0.5-0.5-0.5H2.9C2.6,20.2,2.4,20.4,2.4,20.7z"/>
	</g>
</g>
<g>
	<g id="icon-down-lg">
		<path d="M11.9,2.5c-0.3,0-0.5,0.2-0.5,0.5v15.4l-5.2-5.2C6,13,5.7,13,5.5,13.2s-0.2,0.5,0,0.7l6.1,6.1c0.1,0.1,0.2,0.1,0.4,0.1
			s0.3,0,0.4-0.1l6.1-6.1c0.2-0.2,0.2-0.5,0-0.7s-0.5-0.2-0.7,0l-5.3,5.3V3C12.4,2.7,12.2,2.5,11.9,2.5z"/>
	</g>
</g>
</svg>
