<?xml version="1.0" encoding="utf-8"?>
<!-- Generator: Adobe Illustrator 19.2.1, SVG Export Plug-In . SVG Version: 6.00 Build 0)  -->
<!DOCTYPE svg PUBLIC "-//W3C//DTD SVG 1.1//EN" "http://www.w3.org/Graphics/SVG/1.1/DTD/svg11.dtd">
<svg version="1.1" id="Layer_1" xmlns="http://www.w3.org/2000/svg" xmlns:xlink="http://www.w3.org/1999/xlink" x="0px" y="0px"
	 viewBox="0 0 24 24" enable-background="new 0 0 24 24" xml:space="preserve">
<rect x="0" fill="none" width="24" height="24"/>
<g>
	<g id="icon-box-in">
		<path d="M8.6,12.6c-0.2-0.2-0.5-0.2-0.7,0s-0.2,0.5,0,0.7l3.8,3.8c0.1,0.1,0.2,0.1,0.4,0.1s0.3,0,0.4-0.1l3.7-3.8
			c0.2-0.2,0.2-0.5,0-0.7s-0.5-0.2-0.7,0l-2.9,2.9V1c0-0.3-0.2-0.5-0.5-0.5S11.5,0.7,11.5,1v14.5L8.6,12.6z"/>
		<path d="M8,6.5H6.3c-1.6,0-2.8,1.2-2.8,2.7v11.5c0,1.6,1.3,2.8,2.8,2.8h11.5c1.5,0,2.7-1.2,2.7-2.8V9.2c0-1.5-1.2-2.7-2.7-2.7H16
			c-0.3,0-0.5,0.2-0.5,0.5s0.2,0.5,0.5,0.5h1.8c1,0,1.7,0.7,1.7,1.7v11.5c0,1-0.7,1.8-1.7,1.8H6.3c-1,0-1.8-0.8-1.8-1.8V9.2
			c0-1,0.8-1.7,1.8-1.7H8c0.3,0,0.5-0.2,0.5-0.5S8.3,6.5,8,6.5z"/>
	</g>
</g>
</svg>
