<svg xmlns="http://www.w3.org/2000/svg" viewBox="0 0 24 24"><title>Untitled-3</title><path d="M17,1.384a1.757,1.757,0,0,0-.271.018,0.5,0.5,0,0,0-.271.14L9.253,8.75l-7.3,7.168A0.5,0.5,0,0,0,1.8,16.2l-1,6.37a0.5,0.5,0,0,0,.494.577,0.472,0.472,0,0,0,.065,0l6.194-.808a0.486,0.486,0,0,0,.487-0.07,0.5,0.5,0,0,0,.082-0.082,0.536,0.536,0,0,0,.045-0.032L22.616,7.7a0.5,0.5,0,0,0,.139-0.271c0.013-.075.281-1.87-1.936-4.087A5.587,5.587,0,0,0,17,1.384h0ZM3.3,20.645a2.621,2.621,0,0,0-1.075-.67L2.711,16.87a5.315,5.315,0,0,1,2.984,1.759,4.718,4.718,0,0,1,1.539,2.738l-3.1.405A4.648,4.648,0,0,0,3.3,20.645Zm4.841,0.121A6.124,6.124,0,0,0,6.4,17.921a6.786,6.786,0,0,0-3.083-1.947L9.957,9.46l7.076-7.076a4.722,4.722,0,0,1,3.079,1.661,4.664,4.664,0,0,1,1.663,3.078Z"/></svg>