<svg xmlns="http://www.w3.org/2000/svg" viewBox="0 0 24 24"><title>Untitled-3</title><path d="M4.25,20.5h15.5A2.753,2.753,0,0,0,22.5,17.75v-8.5A2.752,2.752,0,0,0,19.751,6.5H12.88a1.512,1.512,0,0,1-1.294-.77A2.752,2.752,0,0,0,9.243,4.5H4.25A2.551,2.551,0,0,0,1.5,7.249V18.108A2.689,2.689,0,0,0,4.25,20.5ZM21.5,17.75a1.752,1.752,0,0,1-1.749,1.75H4.25A1.732,1.732,0,0,1,2.5,18.108V13a1.569,1.569,0,0,1,1.75-1.75H9.243a2.843,2.843,0,0,0,2.321-1.075A1.589,1.589,0,0,1,12.88,9.5h6.871A1.751,1.751,0,0,1,21.5,11.249v6.5ZM4.25,5.5H9.243a1.8,1.8,0,0,1,1.574.87A2.482,2.482,0,0,0,12.88,7.5h6.871a1.75,1.75,0,0,1,1.743,1.625A2.736,2.736,0,0,0,19.751,8.5H12.88a2.554,2.554,0,0,0-2.041.987,1.876,1.876,0,0,1-1.6.763H4.25a3,3,0,0,0-1.75.519V7.249A1.568,1.568,0,0,1,4.25,5.5Z"/></svg>