<svg xmlns="http://www.w3.org/2000/svg" viewBox="0 0 24 24"><title>Untitled-3</title><path d="M22.882,10.484a1.057,1.057,0,0,0-.588-1.811L15.827,7.8a0.057,0.057,0,0,1-.044-0.031L12.952,1.886a1.057,1.057,0,0,0-1.9,0L8.216,7.765a0.057,0.057,0,0,1-.043.031l-6.466.876a1.057,1.057,0,0,0-.588,1.811l4.716,4.51a0.056,0.056,0,0,1,.016.051L4.686,21.465a1.051,1.051,0,0,0,.226.864,1.074,1.074,0,0,0,1.314.255l5.747-3.092a0.057,0.057,0,0,1,.054,0l5.746,3.092a1.052,1.052,0,0,0,1.314-.255,1.05,1.05,0,0,0,.226-0.864l-1.165-6.42a0.056,0.056,0,0,1,.017-0.051Zm-5.717,4.739,1.165,6.421a0.049,0.049,0,0,1-.01.045,0.064,0.064,0,0,1-.046.024,0.054,0.054,0,0,1-.027-0.008L12.5,18.612a1.056,1.056,0,0,0-1,0L5.753,21.7a0.055,0.055,0,0,1-.027.008,0.065,0.065,0,0,1-.046-0.024,0.049,0.049,0,0,1-.01-0.045l1.165-6.421a1.054,1.054,0,0,0-.31-0.952L1.809,9.761A0.05,0.05,0,0,1,1.794,9.7a0.051,0.051,0,0,1,.046-0.039l6.467-.876A1.053,1.053,0,0,0,9.117,8.2L11.949,2.32a0.057,0.057,0,0,1,.1,0L14.883,8.2a1.054,1.054,0,0,0,.81.589l6.466,0.876a0.05,0.05,0,0,1,.046.039,0.05,0.05,0,0,1-.015.058l-4.716,4.51A1.054,1.054,0,0,0,17.165,15.223Z"/></svg>