<svg xmlns="http://www.w3.org/2000/svg" viewBox="0 0 24 24"><title>Untitled-3</title><path d="M20.5,5.265A1.765,1.765,0,0,0,18.735,3.5h-3.97A1.765,1.765,0,0,0,13,5.265V9.235A1.765,1.765,0,0,0,14.765,11h3.97A1.765,1.765,0,0,0,20.5,9.235V5.265Zm-1,3.97a0.765,0.765,0,0,1-.765.765h-3.97A0.765,0.765,0,0,1,14,9.235V5.265A0.765,0.765,0,0,1,14.765,4.5h3.97a0.765,0.765,0,0,1,.765.765v3.97Z"/><path d="M11,5.265A1.765,1.765,0,0,0,9.235,3.5H5.265A1.765,1.765,0,0,0,3.5,5.265V9.235A1.765,1.765,0,0,0,5.265,11h3.97A1.765,1.765,0,0,0,11,9.235V5.265Zm-1,3.97A0.765,0.765,0,0,1,9.235,10H5.265A0.765,0.765,0,0,1,4.5,9.235V5.265A0.765,0.765,0,0,1,5.265,4.5h3.97A0.765,0.765,0,0,1,10,5.265v3.97Z"/><path d="M20.5,14.765A1.765,1.765,0,0,0,18.735,13h-3.97A1.765,1.765,0,0,0,13,14.765v3.97A1.765,1.765,0,0,0,14.765,20.5h3.97A1.765,1.765,0,0,0,20.5,18.735v-3.97Zm-1,3.97a0.765,0.765,0,0,1-.765.765h-3.97A0.765,0.765,0,0,1,14,18.735v-3.97A0.765,0.765,0,0,1,14.765,14h3.97a0.765,0.765,0,0,1,.765.765v3.971Z"/><path d="M11,14.765A1.765,1.765,0,0,0,9.235,13H5.265A1.765,1.765,0,0,0,3.5,14.765v3.97A1.765,1.765,0,0,0,5.265,20.5h3.97A1.765,1.765,0,0,0,11,18.735v-3.97Zm-1,3.97a0.765,0.765,0,0,1-.765.765H5.265A0.765,0.765,0,0,1,4.5,18.735v-3.97A0.765,0.765,0,0,1,5.265,14h3.97a0.765,0.765,0,0,1,.765.765v3.971Z"/></svg>