<svg xmlns="http://www.w3.org/2000/svg" viewBox="0 0 24 24"><title>Untitled-3</title><path d="M11.989,7.479A4.509,4.509,0,1,0,16.5,11.988,4.514,4.514,0,0,0,11.989,7.479Zm0,8.017A3.509,3.509,0,1,1,15.5,11.988,3.512,3.512,0,0,1,11.989,15.5Z"/><path d="M22.942,14.133l-1.692-.969,0-2.21,1.7-.97a0.5,0.5,0,0,0,.239-0.545,11.4,11.4,0,0,0-1.432-3.521A0.5,0.5,0,0,0,21.2,5.7l-1.888.5L17.751,4.636l0.5-1.875a0.5,0.5,0,0,0-.222-0.554A11.435,11.435,0,0,0,14.514.774a0.5,0.5,0,0,0-.538.239L13.25,2.246H11.036l-0.754-1.28A0.5,0.5,0,0,0,9.754.728,11.4,11.4,0,0,0,5.832,2.314a0.5,0.5,0,0,0-.214.547L5.984,4.256,4.421,5.821,2.995,5.447a0.5,0.5,0,0,0-.543.207,11.364,11.364,0,0,0-1.6,3.79,0.537,0.537,0,0,0,.291.545L2.5,10.735v2.2l-1.416.781a0.518,0.518,0,0,0-.268.531A11.343,11.343,0,0,0,2.29,18.025a0.491,0.491,0,0,0,.549.22l1.475-.4L5.869,19.4,5.441,20.986a0.5,0.5,0,0,0,.2.545,11.417,11.417,0,0,0,3.694,1.656,0.5,0.5,0,0,0,.547-0.233l0.843-1.433h2.21l0.89,1.512a0.5,0.5,0,0,0,.532.236,11.529,11.529,0,0,0,3.672-1.4,0.5,0.5,0,0,0,.225-0.547l-0.431-1.74L19.4,18.016l1.8,0.448a0.5,0.5,0,0,0,.541-0.215,11.32,11.32,0,0,0,1.441-3.566A0.5,0.5,0,0,0,22.942,14.133ZM21.084,17.4l-1.721-.427a0.5,0.5,0,0,0-.474.132L16.92,19.079a0.5,0.5,0,0,0-.132.474L17.2,21.2a10.573,10.573,0,0,1-2.691,1.012L13.656,20.77a0.512,0.512,0,0,0-.431-0.259L10.444,20.5h0a0.513,0.513,0,0,0-.431.259l-0.8,1.36A10.411,10.411,0,0,1,6.5,20.892l0.408-1.508A0.5,0.5,0,0,0,6.779,18.9L4.814,16.933A0.5,0.5,0,0,0,4.329,16.8l-1.392.377a10.357,10.357,0,0,1-1.093-2.774l1.35-.744a0.554,0.554,0,0,0,.3-0.433V10.446a0.556,0.556,0,0,0-.3-0.434l-1.254-.7a10.343,10.343,0,0,1,1.166-2.8L4.451,6.862a0.5,0.5,0,0,0,.477-0.13L6.9,4.76a0.5,0.5,0,0,0,.129-0.48L6.679,2.965A10.381,10.381,0,0,1,9.605,1.781L10.32,3a0.507,0.507,0,0,0,.431.251h2.784A0.505,0.505,0,0,0,13.965,3l0.684-1.158a10.433,10.433,0,0,1,2.535,1.036L16.711,4.659a0.5,0.5,0,0,0,.129.481L18.8,7.109a0.5,0.5,0,0,0,.482.13l1.8-.476A10.414,10.414,0,0,1,22.118,9.3l-1.621.927a0.5,0.5,0,0,0-.252.435l0.005,2.79a0.5,0.5,0,0,0,.252.433l1.615,0.924A10.379,10.379,0,0,1,21.084,17.4Z"/></svg>