<svg xmlns="http://www.w3.org/2000/svg" viewBox="0 0 24 24"><title>Untitled-3</title><path d="M22.336,7.75H1.664A1.666,1.666,0,0,0,0,9.414v6.422A1.666,1.666,0,0,0,1.664,17.5H2.982a0.5,0.5,0,1,0,0-1H1.664A0.665,0.665,0,0,1,1,15.836V9.414A0.665,0.665,0,0,1,1.664,8.75H22.336A0.665,0.665,0,0,1,23,9.414v6.422a0.665,0.665,0,0,1-.664.664h-1.4a0.5,0.5,0,0,0,0,1h1.4A1.666,1.666,0,0,0,24,15.836V9.414A1.666,1.666,0,0,0,22.336,7.75Z"/><path d="M3.937,20.558a1.694,1.694,0,0,0,1.371.692h13.3a1.71,1.71,0,0,0,1.633-2.205L18.563,13.5H20.25a0.5,0.5,0,1,0,0-1H3.75a0.5,0.5,0,1,0,0,1h1.6l-1.68,5.545A1.693,1.693,0,0,0,3.937,20.558Zm0.694-1.225L6.4,13.5H17.518l1.768,5.833a0.711,0.711,0,0,1-.676.917H5.308A0.711,0.711,0,0,1,4.631,19.333Z"/><path d="M17.75,7.022a0.5,0.5,0,0,0,.5-0.5V4.438A1.689,1.689,0,0,0,16.57,2.75H7.43A1.689,1.689,0,0,0,5.75,4.438V6.522a0.5,0.5,0,0,0,1,0V4.438A0.688,0.688,0,0,1,7.43,3.75h9.14a0.688,0.688,0,0,1,.68.688V6.522A0.5,0.5,0,0,0,17.75,7.022Z"/><path d="M8,16.25h8a0.5,0.5,0,0,0,0-1H8A0.5,0.5,0,1,0,8,16.25Z"/><path d="M7.25,18.5H16.5a0.5,0.5,0,1,0,0-1H7.25A0.5,0.5,0,1,0,7.25,18.5Z"/><path d="M22,10.375a0.625,0.625,0,1,1-.625-0.625A0.625,0.625,0,0,1,22,10.375Z"/></svg>