<svg xmlns="http://www.w3.org/2000/svg" viewBox="0 0 24 24"><title>Untitled-3</title><path d="M21.113,3.153H9.068A2.222,2.222,0,0,0,6.875,5.377v7.571a2.208,2.208,0,0,0,2.205,2.205h6.044v1.979a1.061,1.061,0,0,0,1.8.73l2.745-2.708H21.1a2.277,2.277,0,0,0,2.274-2.274V5.445A2.29,2.29,0,0,0,21.113,3.153Zm1.262,9.726A1.276,1.276,0,0,1,21.1,14.153H19.468a0.5,0.5,0,0,0-.352.145l-2.88,2.856a0.088,0.088,0,0,1-.047.01c-0.006,0-.064,0-0.064-0.033V14.653a0.455,0.455,0,0,0-.444-0.5h-6.6a1.207,1.207,0,0,1-1.205-1.205V5.377A1.221,1.221,0,0,1,9.068,4.153H21.113a1.289,1.289,0,0,1,1.262,1.292v7.434Z"/><path d="M2.551,18.4H3.423l2.166,2.173a0.92,0.92,0,0,0,.657.27,0.812,0.812,0,0,0,.33-0.073,0.9,0.9,0,0,0,.549-0.86V18.4H11.5a1.753,1.753,0,0,0,1.871-1.741,0.5,0.5,0,1,0-1,0,0.778,0.778,0,0,1-.871.739H6.675a0.53,0.53,0,0,0-.55.482v1.853l-2.164-2.2a0.435,0.435,0,0,0-.33-0.139H2.551a0.943,0.943,0,0,1-.926-0.944V10.57a0.917,0.917,0,0,1,.916-0.916H5.375a0.5,0.5,0,1,0,0-1H2.541A1.918,1.918,0,0,0,.625,10.57v5.89A1.943,1.943,0,0,0,2.551,18.4h0Z"/></svg>