<svg xmlns="http://www.w3.org/2000/svg" viewBox="0 0 24 24"><title>Untitled-3</title><path d="M22.629,6.5h-2V2.25a0.455,0.455,0,0,0-.1-0.373,0.435,0.435,0,0,0-.358-0.124c-0.684.078-16.755,1.911-17.383,2A2.064,2.064,0,0,0,.872,5.478a2.3,2.3,0,0,0,0,.232c0,0.013,0,.027,0,0.041V18.79c0,1.517.8,2.46,2.083,2.46H22.629a0.5,0.5,0,0,0,.5-0.5V7.023A0.52,0.52,0,0,0,22.629,6.5Zm-18.25,4h17.75v2H4.379v-2Zm17.75-3v2H4.379v-2h17.75ZM2.879,4.745c0.549-.079,14-1.6,16.75-1.934V6.5H2.871A0.991,0.991,0,0,1,2.12,6.244a1,1,0,0,1-.272-0.727A1.135,1.135,0,0,1,2.879,4.745Zm-1,14.046V7.3a2.182,2.182,0,0,0,.991.2H3.379V20.25H2.963A1.2,1.2,0,0,1,1.879,18.79Zm2.5,1.46V13.5h17.75v6.75H4.379Z"/></svg>