<?xml version="1.0" encoding="utf-8"?>
<!-- Generator: Adobe Illustrator 19.2.1, SVG Export Plug-In . SVG Version: 6.00 Build 0)  -->
<!DOCTYPE svg PUBLIC "-//W3C//DTD SVG 1.1//EN" "http://www.w3.org/Graphics/SVG/1.1/DTD/svg11.dtd">
<svg version="1.1" id="Layer_1" xmlns="http://www.w3.org/2000/svg" xmlns:xlink="http://www.w3.org/1999/xlink" x="0px" y="0px"
	 viewBox="0 0 42 42" enable-background="new 0 0 42 42" xml:space="preserve">
<circle fill="#3071F2" cx="21" cy="21" r="21"/>
<g>
	<defs>
		<circle id="SVGID_1_" cx="21" cy="21" r="21"/>
	</defs>
	<clipPath id="SVGID_2_">
		<use xlink:href="#SVGID_1_"  overflow="visible"/>
	</clipPath>
	<g transform="translate(2400 200)" clip-path="url(#SVGID_2_)">
		<g id="icon-users_7_">
			<path fill="#3071F2" d="M35.9,28.6C35.9,28.5,35.9,28.5,35.9,28.6c-1-0.5-1.6-1.5-1.6-2.7c0-1.7,1.4-3,3-3c1.7,0,3,1.4,3,3
				c0,1.7-1.4,3-3,3C36.8,28.9,36.4,28.8,35.9,28.6z M40.2,28.9c0.8-0.8,1.3-1.8,1.3-3c0-2.3-1.9-4.2-4.2-4.2s-4.2,1.9-4.2,4.2
				c0,1.2,0.5,2.3,1.3,3c-0.9,0.4-1.7,1.1-2.3,1.9c-0.7-0.6-1.5-1.1-2.4-1.5c1.3-1.1,2.2-2.8,2.2-4.6c0-3.3-2.7-6-6-6s-6,2.7-6,6
				c0,1.9,0.9,3.5,2.2,4.6c-3.4,1.5-5.6,4.9-5.6,8.6c0,0.3,0.3,0.6,0.6,0.6c0.3,0,0.6-0.3,0.6-0.6c0-3.5,2.3-6.7,5.7-7.8
				c0.8,0.4,1.7,0.6,2.6,0.6c1,0,1.8-0.2,2.7-0.6c3.3,1.1,5.6,4.3,5.6,7.9c0,0.3,0.3,0.6,0.6,0.6c0.3,0,0.6-0.3,0.6-0.6
				c0-2.4-0.9-4.6-2.4-6.3c0.6-0.9,1.5-1.6,2.6-1.9c0.5,0.2,1.1,0.4,1.7,0.4c0.6,0,1.2-0.1,1.7-0.4c2.1,0.7,3.6,2.8,3.6,5
				c0,0.3,0.3,0.6,0.6,0.6s0.6-0.3,0.6-0.6C43.8,32.2,42.4,30,40.2,28.9z M23.8,29c-0.1-0.1-0.2-0.1-0.3-0.2
				c-1.5-0.8-2.4-2.4-2.4-4.2c0-2.7,2.2-4.9,4.9-4.9s4.9,2.2,4.9,4.9c0,1.8-1,3.4-2.5,4.2c-0.1,0-0.2,0.1-0.2,0.1
				c-0.7,0.3-1.4,0.5-2.2,0.5C25.2,29.5,24.5,29.3,23.8,29z"/>
		</g>
	</g>
	<path clip-path="url(#SVGID_2_)" fill="#3071F1" d="M35.7,28.3C35.7,28.3,35.7,28.3,35.7,28.3c-1-0.5-1.6-1.5-1.6-2.7
		c0-1.7,1.4-3,3-3c1.7,0,3,1.4,3,3c0,1.7-1.4,3-3,3C36.6,28.6,36.1,28.5,35.7,28.3z M40,28.6c0.8-0.8,1.3-1.8,1.3-3
		c0-2.3-1.9-4.2-4.2-4.2s-4.2,1.9-4.2,4.2c0,1.2,0.5,2.3,1.3,3c-0.9,0.4-1.7,1.1-2.3,1.9c-0.7-0.6-1.5-1.1-2.4-1.5
		c1.3-1.1,2.2-2.8,2.2-4.6c0-3.3-2.7-6-6-6s-6,2.7-6,6c0,1.9,0.9,3.5,2.2,4.6c-3.4,1.5-5.6,4.9-5.6,8.6c0,0.3,0.3,0.6,0.6,0.6
		c0.3,0,0.6-0.3,0.6-0.6c0-3.5,2.3-6.7,5.7-7.8c0.8,0.4,1.7,0.6,2.6,0.6c1,0,1.8-0.2,2.7-0.6c3.3,1.1,5.6,4.3,5.6,7.9
		c0,0.3,0.3,0.6,0.6,0.6s0.6-0.3,0.6-0.6c0-2.4-0.9-4.6-2.4-6.3c0.6-0.9,1.5-1.6,2.6-1.9c0.5,0.2,1.1,0.4,1.7,0.4
		c0.6,0,1.2-0.1,1.7-0.4c2.1,0.7,3.6,2.8,3.6,5c0,0.3,0.3,0.6,0.6,0.6s0.6-0.3,0.6-0.6C43.6,32,42.1,29.7,40,28.6z M23.6,28.7
		c-0.1-0.1-0.2-0.1-0.3-0.2c-1.5-0.8-2.4-2.4-2.4-4.2c0-2.7,2.2-4.9,4.9-4.9s4.9,2.2,4.9,4.9c0,1.8-1,3.4-2.5,4.2
		c-0.1,0-0.2,0.1-0.2,0.1c-0.7,0.3-1.4,0.5-2.2,0.5C25,29.2,24.2,29.1,23.6,28.7z"/>
	<path clip-path="url(#SVGID_2_)" fill="#3070F0" d="M35.4,28.1C35.4,28,35.4,28,35.4,28.1c-1-0.5-1.6-1.5-1.6-2.7c0-1.7,1.4-3,3-3
		c1.7,0,3,1.4,3,3c0,1.7-1.4,3-3,3C36.3,28.4,35.9,28.3,35.4,28.1z M39.7,28.4c0.8-0.8,1.3-1.8,1.3-3c0-2.3-1.9-4.2-4.2-4.2
		s-4.2,1.9-4.2,4.2c0,1.2,0.5,2.3,1.3,3c-0.9,0.4-1.7,1.1-2.3,1.9c-0.7-0.6-1.5-1.1-2.4-1.5c1.3-1.1,2.2-2.8,2.2-4.6
		c0-3.3-2.7-6-6-6s-6,2.7-6,6c0,1.9,0.9,3.5,2.2,4.6c-3.4,1.5-5.6,4.9-5.6,8.6c0,0.3,0.3,0.6,0.6,0.6c0.3,0,0.6-0.3,0.6-0.6
		c0-3.5,2.3-6.7,5.7-7.8c0.8,0.4,1.7,0.6,2.6,0.6c1,0,1.8-0.2,2.7-0.6c3.3,1.1,5.6,4.3,5.6,7.9c0,0.3,0.3,0.6,0.6,0.6
		s0.6-0.3,0.6-0.6c0-2.4-0.9-4.6-2.4-6.3c0.6-0.9,1.5-1.6,2.6-1.9c0.5,0.2,1.1,0.4,1.7,0.4c0.6,0,1.2-0.1,1.7-0.4
		c2.1,0.7,3.6,2.8,3.6,5c0,0.3,0.3,0.6,0.6,0.6c0.3,0,0.6-0.3,0.6-0.6C43.3,31.7,41.9,29.5,39.7,28.4z M23.3,28.5
		c-0.1-0.1-0.2-0.1-0.3-0.2c-1.5-0.8-2.4-2.4-2.4-4.2c0-2.7,2.2-4.9,4.9-4.9s4.9,2.2,4.9,4.9c0,1.8-1,3.4-2.5,4.2
		c-0.1,0-0.2,0.1-0.2,0.1c-0.7,0.3-1.4,0.5-2.2,0.5C24.7,29,24,28.8,23.3,28.5z"/>
	<path clip-path="url(#SVGID_2_)" fill="#2F70EF" d="M35.2,27.8C35.2,27.8,35.2,27.8,35.2,27.8c-1-0.5-1.6-1.5-1.6-2.7
		c0-1.7,1.4-3,3-3c1.7,0,3,1.4,3,3c0,1.7-1.4,3-3,3C36.1,28.2,35.6,28,35.2,27.8z M39.5,28.1c0.8-0.8,1.3-1.8,1.3-3
		c0-2.3-1.9-4.2-4.2-4.2c-2.3,0-4.2,1.9-4.2,4.2c0,1.2,0.5,2.3,1.3,3c-0.9,0.4-1.7,1.1-2.3,1.9c-0.7-0.6-1.5-1.1-2.4-1.5
		c1.3-1.1,2.2-2.8,2.2-4.6c0-3.3-2.7-6-6-6s-6,2.7-6,6c0,1.9,0.9,3.5,2.2,4.6c-3.4,1.5-5.6,4.9-5.6,8.6c0,0.3,0.3,0.6,0.6,0.6
		s0.6-0.3,0.6-0.6c0-3.5,2.3-6.7,5.7-7.8c0.8,0.4,1.7,0.6,2.6,0.6c1,0,1.8-0.2,2.7-0.6c3.3,1.1,5.6,4.3,5.6,7.9
		c0,0.3,0.3,0.6,0.6,0.6s0.6-0.3,0.6-0.6c0-2.4-0.9-4.6-2.4-6.3c0.6-0.9,1.5-1.6,2.6-1.9c0.5,0.2,1.1,0.4,1.7,0.4
		c0.6,0,1.2-0.1,1.7-0.4c2.1,0.7,3.6,2.8,3.6,5c0,0.3,0.3,0.6,0.6,0.6s0.6-0.3,0.6-0.6C43.1,31.5,41.6,29.2,39.5,28.1z M23.1,28.2
		c-0.1-0.1-0.2-0.1-0.3-0.2c-1.5-0.8-2.4-2.4-2.4-4.2c0-2.7,2.2-4.9,4.9-4.9s4.9,2.2,4.9,4.9c0,1.8-1,3.4-2.5,4.2
		c-0.1,0-0.2,0.1-0.2,0.1c-0.7,0.3-1.4,0.5-2.2,0.5C24.5,28.7,23.7,28.6,23.1,28.2z"/>
	<path clip-path="url(#SVGID_2_)" fill="#2F6FEE" d="M34.9,27.6C34.9,27.5,34.9,27.5,34.9,27.6c-1-0.5-1.6-1.5-1.6-2.7
		c0-1.7,1.4-3,3-3c1.7,0,3,1.4,3,3c0,1.7-1.4,3-3,3C35.8,27.9,35.4,27.8,34.9,27.6z M39.2,27.9c0.8-0.8,1.3-1.8,1.3-3
		c0-2.3-1.9-4.2-4.2-4.2c-2.3,0-4.2,1.9-4.2,4.2c0,1.2,0.5,2.3,1.3,3c-0.9,0.4-1.7,1.1-2.3,1.9c-0.7-0.6-1.5-1.1-2.4-1.5
		c1.3-1.1,2.2-2.8,2.2-4.6c0-3.3-2.7-6-6-6s-6,2.7-6,6c0,1.9,0.9,3.5,2.2,4.6c-3.4,1.5-5.6,4.9-5.6,8.6c0,0.3,0.3,0.6,0.6,0.6
		c0.3,0,0.6-0.3,0.6-0.6c0-3.5,2.3-6.7,5.7-7.8c0.8,0.4,1.7,0.6,2.6,0.6c1,0,1.8-0.2,2.7-0.6c3.3,1.1,5.6,4.3,5.6,7.9
		c0,0.3,0.3,0.6,0.6,0.6s0.6-0.3,0.6-0.6c0-2.4-0.9-4.6-2.4-6.3c0.6-0.9,1.5-1.6,2.6-1.9c0.5,0.2,1.1,0.4,1.7,0.4
		c0.6,0,1.2-0.1,1.7-0.4c2.1,0.7,3.6,2.8,3.6,5c0,0.3,0.3,0.6,0.6,0.6s0.6-0.3,0.6-0.6C42.8,31.2,41.4,29,39.2,27.9z M22.8,28
		c-0.1-0.1-0.2-0.1-0.3-0.2c-1.5-0.8-2.4-2.4-2.4-4.2c0-2.7,2.2-4.9,4.9-4.9s4.9,2.2,4.9,4.9c0,1.8-1,3.4-2.5,4.2
		c-0.1,0-0.2,0.1-0.2,0.1c-0.7,0.3-1.4,0.5-2.2,0.5C24.2,28.5,23.5,28.3,22.8,28z"/>
	<path clip-path="url(#SVGID_2_)" fill="#2F6FED" d="M34.7,27.3C34.7,27.3,34.7,27.3,34.7,27.3c-1-0.5-1.6-1.5-1.6-2.7
		c0-1.7,1.4-3,3-3c1.7,0,3,1.4,3,3c0,1.7-1.4,3-3,3C35.6,27.7,35.1,27.5,34.7,27.3z M39,27.6c0.8-0.8,1.3-1.8,1.3-3
		c0-2.3-1.9-4.2-4.2-4.2s-4.2,1.9-4.2,4.2c0,1.2,0.5,2.3,1.3,3c-0.9,0.4-1.7,1.1-2.3,1.9c-0.7-0.6-1.5-1.1-2.4-1.5
		c1.3-1.1,2.2-2.8,2.2-4.6c0-3.3-2.7-6-6-6s-6,2.7-6,6c0,1.9,0.9,3.5,2.2,4.6c-3.4,1.5-5.6,4.9-5.6,8.6c0,0.3,0.3,0.6,0.6,0.6
		s0.6-0.3,0.6-0.6c0-3.5,2.3-6.7,5.7-7.8c0.8,0.4,1.7,0.6,2.6,0.6c1,0,1.8-0.2,2.7-0.6c3.3,1.1,5.6,4.3,5.6,7.9
		c0,0.3,0.3,0.6,0.6,0.6c0.3,0,0.6-0.3,0.6-0.6c0-2.4-0.9-4.6-2.4-6.3c0.6-0.9,1.5-1.6,2.6-1.9c0.5,0.2,1.1,0.4,1.7,0.4
		c0.6,0,1.2-0.1,1.7-0.4c2.1,0.7,3.6,2.8,3.6,5c0,0.3,0.3,0.6,0.6,0.6s0.6-0.3,0.6-0.6C42.6,31,41.1,28.7,39,27.6z M22.6,27.7
		c-0.1-0.1-0.2-0.1-0.3-0.2c-1.5-0.8-2.4-2.4-2.4-4.2c0-2.7,2.2-4.9,4.9-4.9s4.9,2.2,4.9,4.9c0,1.8-1,3.4-2.5,4.2
		c-0.1,0-0.2,0.1-0.2,0.1c-0.7,0.3-1.4,0.5-2.2,0.5C24,28.2,23.3,28.1,22.6,27.7z"/>
	<path clip-path="url(#SVGID_2_)" fill="#2F6EEC" d="M34.5,27.1C34.4,27.1,34.4,27,34.5,27.1c-1-0.5-1.6-1.5-1.6-2.7
		c0-1.7,1.4-3,3-3c1.7,0,3,1.4,3,3c0,1.7-1.4,3-3,3C35.3,27.4,34.9,27.3,34.5,27.1z M38.7,27.4c0.8-0.8,1.3-1.8,1.3-3
		c0-2.3-1.9-4.2-4.2-4.2s-4.2,1.9-4.2,4.2c0,1.2,0.5,2.3,1.3,3c-0.9,0.4-1.7,1.1-2.3,1.9c-0.7-0.6-1.5-1.1-2.4-1.5
		c1.3-1.1,2.2-2.8,2.2-4.6c0-3.3-2.7-6-6-6s-6,2.7-6,6c0,1.9,0.9,3.5,2.2,4.6c-3.4,1.5-5.6,4.9-5.6,8.6c0,0.3,0.3,0.6,0.6,0.6
		s0.6-0.3,0.6-0.6c0-3.5,2.3-6.7,5.7-7.8c0.8,0.4,1.7,0.6,2.6,0.6c1,0,1.8-0.2,2.7-0.6c3.3,1.1,5.6,4.3,5.6,7.9
		c0,0.3,0.3,0.6,0.6,0.6s0.6-0.3,0.6-0.6c0-2.4-0.9-4.6-2.4-6.3c0.6-0.9,1.5-1.6,2.6-1.9c0.5,0.2,1.1,0.4,1.7,0.4
		c0.6,0,1.2-0.1,1.7-0.4c2.1,0.7,3.6,2.8,3.6,5c0,0.3,0.3,0.6,0.6,0.6s0.6-0.3,0.6-0.6C42.3,30.7,40.9,28.5,38.7,27.4z M22.4,27.5
		c-0.1-0.1-0.2-0.1-0.3-0.2c-1.5-0.8-2.4-2.4-2.4-4.2c0-2.7,2.2-4.9,4.9-4.9s4.9,2.2,4.9,4.9c0,1.8-1,3.4-2.5,4.2
		c-0.1,0-0.2,0.1-0.2,0.1c-0.7,0.3-1.4,0.5-2.2,0.5C23.7,28,23,27.8,22.4,27.5z"/>
	<path clip-path="url(#SVGID_2_)" fill="#2F6EEB" d="M34.2,26.8C34.2,26.8,34.2,26.8,34.2,26.8c-1-0.5-1.6-1.5-1.6-2.7
		c0-1.7,1.4-3,3-3c1.7,0,3,1.4,3,3c0,1.7-1.4,3-3,3C35.1,27.2,34.6,27,34.2,26.8z M38.5,27.1c0.8-0.8,1.3-1.8,1.3-3
		c0-2.3-1.9-4.2-4.2-4.2s-4.2,1.9-4.2,4.2c0,1.2,0.5,2.3,1.3,3c-0.9,0.4-1.7,1.1-2.3,1.9c-0.7-0.6-1.5-1.1-2.4-1.5
		c1.3-1.1,2.2-2.8,2.2-4.6c0-3.3-2.7-6-6-6s-6,2.7-6,6c0,1.9,0.9,3.5,2.2,4.6c-3.4,1.5-5.6,4.9-5.6,8.6c0,0.3,0.3,0.6,0.6,0.6
		s0.6-0.3,0.6-0.6c0-3.5,2.3-6.7,5.7-7.8c0.8,0.4,1.7,0.6,2.6,0.6c1,0,1.8-0.2,2.7-0.6c3.3,1.1,5.6,4.3,5.6,7.9
		c0,0.3,0.3,0.6,0.6,0.6s0.6-0.3,0.6-0.6c0-2.4-0.9-4.6-2.4-6.3c0.6-0.9,1.5-1.6,2.6-1.9c0.5,0.2,1.1,0.4,1.7,0.4
		c0.6,0,1.2-0.1,1.7-0.4c2.1,0.7,3.6,2.8,3.6,5c0,0.3,0.3,0.6,0.6,0.6s0.6-0.3,0.6-0.6C42.1,30.5,40.7,28.2,38.5,27.1z M22.1,27.2
		c-0.1-0.1-0.2-0.1-0.3-0.2c-1.5-0.8-2.4-2.4-2.4-4.2c0-2.7,2.2-4.9,4.9-4.9s4.9,2.2,4.9,4.9c0,1.8-1,3.4-2.5,4.2
		c-0.1,0-0.2,0.1-0.2,0.1c-0.7,0.3-1.4,0.5-2.2,0.5C23.5,27.7,22.8,27.6,22.1,27.2z"/>
	<path clip-path="url(#SVGID_2_)" fill="#2E6DEA" d="M34,26.6C33.9,26.6,33.9,26.5,34,26.6c-1-0.5-1.6-1.5-1.6-2.7c0-1.7,1.4-3,3-3
		c1.7,0,3,1.4,3,3c0,1.7-1.4,3-3,3C34.8,26.9,34.4,26.8,34,26.6z M38.2,26.9c0.8-0.8,1.3-1.8,1.3-3c0-2.3-1.9-4.2-4.2-4.2
		c-2.3,0-4.2,1.9-4.2,4.2c0,1.2,0.5,2.3,1.3,3c-0.9,0.4-1.7,1.1-2.3,1.9c-0.7-0.6-1.5-1.1-2.4-1.5c1.3-1.1,2.2-2.8,2.2-4.6
		c0-3.3-2.7-6-6-6s-6,2.7-6,6c0,1.9,0.9,3.5,2.2,4.6c-3.4,1.5-5.6,4.9-5.6,8.6c0,0.3,0.3,0.6,0.6,0.6s0.6-0.3,0.6-0.6
		c0-3.5,2.3-6.7,5.7-7.8c0.8,0.4,1.7,0.6,2.6,0.6c1,0,1.8-0.2,2.7-0.6c3.3,1.1,5.6,4.3,5.6,7.9c0,0.3,0.3,0.6,0.6,0.6
		s0.6-0.3,0.6-0.6c0-2.4-0.9-4.6-2.4-6.3c0.6-0.9,1.5-1.6,2.6-1.9c0.5,0.2,1.1,0.4,1.7,0.4c0.6,0,1.2-0.1,1.7-0.4
		c2.1,0.7,3.6,2.8,3.6,5c0,0.3,0.3,0.6,0.6,0.6s0.6-0.3,0.6-0.6C41.9,30.2,40.4,28,38.2,26.9z M21.9,27c-0.1-0.1-0.2-0.1-0.3-0.2
		c-1.5-0.8-2.4-2.4-2.4-4.2c0-2.7,2.2-4.9,4.9-4.9s4.9,2.2,4.9,4.9c0,1.8-1,3.4-2.5,4.2c-0.1,0-0.2,0.1-0.2,0.1
		c-0.7,0.3-1.4,0.5-2.2,0.5C23.2,27.5,22.5,27.3,21.9,27z"/>
	<path clip-path="url(#SVGID_2_)" fill="#2E6DE9" d="M33.7,26.3C33.7,26.3,33.7,26.3,33.7,26.3c-1-0.5-1.6-1.5-1.6-2.7
		c0-1.7,1.4-3,3-3c1.7,0,3,1.4,3,3c0,1.7-1.4,3-3,3C34.6,26.7,34.1,26.5,33.7,26.3z M38,26.6c0.8-0.8,1.3-1.8,1.3-3
		c0-2.3-1.9-4.2-4.2-4.2c-2.3,0-4.2,1.9-4.2,4.2c0,1.2,0.5,2.3,1.3,3c-0.9,0.4-1.7,1.1-2.3,1.9c-0.7-0.6-1.5-1.1-2.4-1.5
		c1.3-1.1,2.2-2.8,2.2-4.6c0-3.3-2.7-6-6-6s-6,2.7-6,6c0,1.9,0.9,3.5,2.2,4.6c-3.4,1.5-5.6,4.9-5.6,8.6c0,0.3,0.3,0.6,0.6,0.6
		s0.6-0.3,0.6-0.6c0-3.5,2.3-6.7,5.7-7.8c0.8,0.4,1.7,0.6,2.6,0.6c1,0,1.8-0.2,2.7-0.6c3.3,1.1,5.6,4.3,5.6,7.9
		c0,0.3,0.3,0.6,0.6,0.6s0.6-0.3,0.6-0.6c0-2.4-0.9-4.6-2.4-6.3c0.6-0.9,1.5-1.6,2.6-1.9c0.5,0.2,1.1,0.4,1.7,0.4
		c0.6,0,1.2-0.1,1.7-0.4c2.1,0.7,3.6,2.8,3.6,5c0,0.3,0.3,0.6,0.6,0.6s0.6-0.3,0.6-0.6C41.6,30,40.2,27.7,38,26.6z M21.6,26.7
		c-0.1-0.1-0.2-0.1-0.3-0.2c-1.5-0.8-2.4-2.4-2.4-4.2c0-2.7,2.2-4.9,4.9-4.9s4.9,2.2,4.9,4.9c0,1.8-1,3.4-2.5,4.2
		c-0.1,0-0.2,0.1-0.2,0.1c-0.7,0.3-1.4,0.5-2.2,0.5C23,27.3,22.3,27.1,21.6,26.7z"/>
	<path clip-path="url(#SVGID_2_)" fill="#2E6CE8" d="M33.5,26.1C33.4,26.1,33.4,26.1,33.5,26.1c-1-0.5-1.6-1.5-1.6-2.7
		c0-1.7,1.4-3,3-3c1.7,0,3,1.4,3,3c0,1.7-1.4,3-3,3C34.4,26.4,33.9,26.3,33.5,26.1z M37.7,26.4c0.8-0.8,1.3-1.8,1.3-3
		c0-2.3-1.9-4.2-4.2-4.2c-2.3,0-4.2,1.9-4.2,4.2c0,1.2,0.5,2.3,1.3,3c-0.9,0.4-1.7,1.1-2.3,1.9c-0.7-0.6-1.5-1.1-2.4-1.5
		c1.3-1.1,2.2-2.8,2.2-4.6c0-3.3-2.7-6-6-6s-6,2.7-6,6c0,1.9,0.9,3.5,2.2,4.6c-3.4,1.5-5.6,4.9-5.6,8.6c0,0.3,0.3,0.6,0.6,0.6
		s0.6-0.3,0.6-0.6c0-3.5,2.3-6.7,5.7-7.8c0.8,0.4,1.7,0.6,2.6,0.6c1,0,1.8-0.2,2.7-0.6c3.3,1.1,5.6,4.3,5.6,7.9
		c0,0.3,0.3,0.6,0.6,0.6s0.6-0.3,0.6-0.6c0-2.4-0.9-4.6-2.4-6.3c0.6-0.9,1.5-1.6,2.6-1.9c0.5,0.2,1.1,0.4,1.7,0.4
		c0.6,0,1.2-0.1,1.7-0.4c2.1,0.7,3.6,2.8,3.6,5c0,0.3,0.3,0.6,0.6,0.6s0.6-0.3,0.6-0.6C41.4,29.7,39.9,27.5,37.7,26.4z M21.4,26.5
		c-0.1-0.1-0.2-0.1-0.3-0.2c-1.5-0.8-2.4-2.4-2.4-4.2c0-2.7,2.2-4.9,4.9-4.9s4.9,2.2,4.9,4.9c0,1.8-1,3.4-2.5,4.2
		c-0.1,0-0.2,0.1-0.2,0.1c-0.7,0.3-1.4,0.5-2.2,0.5C22.7,27,22,26.8,21.4,26.5z"/>
	<path clip-path="url(#SVGID_2_)" fill="#2E6CE7" d="M33.2,25.8C33.2,25.8,33.2,25.8,33.2,25.8c-1-0.5-1.6-1.5-1.6-2.7
		c0-1.7,1.4-3,3-3c1.7,0,3,1.4,3,3c0,1.7-1.4,3-3,3C34.1,26.2,33.6,26,33.2,25.8z M37.5,26.2c0.8-0.8,1.3-1.8,1.3-3
		c0-2.3-1.9-4.2-4.2-4.2s-4.2,1.9-4.2,4.2c0,1.2,0.5,2.3,1.3,3c-0.9,0.4-1.7,1.1-2.3,1.9c-0.7-0.6-1.5-1.1-2.4-1.5
		c1.3-1.1,2.2-2.8,2.2-4.6c0-3.3-2.7-6-6-6s-6,2.7-6,6c0,1.9,0.9,3.5,2.2,4.6c-3.4,1.5-5.6,4.9-5.6,8.6c0,0.3,0.3,0.6,0.6,0.6
		s0.6-0.3,0.6-0.6c0-3.5,2.3-6.7,5.7-7.8c0.8,0.4,1.7,0.6,2.6,0.6c1,0,1.8-0.2,2.7-0.6c3.3,1.1,5.6,4.3,5.6,7.9
		c0,0.3,0.3,0.6,0.6,0.6c0.3,0,0.6-0.3,0.6-0.6c0-2.4-0.9-4.6-2.4-6.3c0.6-0.9,1.5-1.6,2.6-1.9c0.5,0.2,1.1,0.4,1.7,0.4
		c0.6,0,1.2-0.1,1.7-0.4c2.1,0.7,3.6,2.8,3.6,5c0,0.3,0.3,0.6,0.6,0.6s0.6-0.3,0.6-0.6C41.1,29.5,39.7,27.2,37.5,26.2z M21.1,26.2
		c-0.1-0.1-0.2-0.1-0.3-0.2c-1.5-0.8-2.4-2.4-2.4-4.2c0-2.7,2.2-4.9,4.9-4.9s4.9,2.2,4.9,4.9c0,1.8-1,3.4-2.5,4.2
		c-0.1,0-0.2,0.1-0.2,0.1c-0.7,0.3-1.4,0.5-2.2,0.5C22.5,26.8,21.8,26.6,21.1,26.2z"/>
	<path clip-path="url(#SVGID_2_)" fill="#2E6BE6" d="M33,25.6C32.9,25.6,32.9,25.6,33,25.6c-1-0.5-1.6-1.5-1.6-2.7c0-1.7,1.4-3,3-3
		c1.7,0,3,1.4,3,3c0,1.7-1.4,3-3,3C33.9,25.9,33.4,25.8,33,25.6z M37.2,25.9c0.8-0.8,1.3-1.8,1.3-3c0-2.3-1.9-4.2-4.2-4.2
		s-4.2,1.9-4.2,4.2c0,1.2,0.5,2.3,1.3,3c-0.9,0.4-1.7,1.1-2.3,1.9c-0.7-0.6-1.5-1.1-2.4-1.5c1.3-1.1,2.2-2.8,2.2-4.6
		c0-3.3-2.7-6-6-6s-6,2.7-6,6c0,1.9,0.9,3.5,2.2,4.6c-3.4,1.5-5.6,4.9-5.6,8.6c0,0.3,0.3,0.6,0.6,0.6c0.3,0,0.6-0.3,0.6-0.6
		c0-3.5,2.3-6.7,5.7-7.8c0.8,0.4,1.7,0.6,2.6,0.6c1,0,1.8-0.2,2.7-0.6c3.3,1.1,5.6,4.3,5.6,7.9c0,0.3,0.3,0.6,0.6,0.6
		c0.3,0,0.6-0.3,0.6-0.6c0-2.4-0.9-4.6-2.4-6.3c0.6-0.9,1.5-1.6,2.6-1.9c0.5,0.2,1.1,0.4,1.7,0.4c0.6,0,1.2-0.1,1.7-0.4
		c2.1,0.7,3.6,2.8,3.6,5c0,0.3,0.3,0.6,0.6,0.6s0.6-0.3,0.6-0.6C40.9,29.2,39.4,27,37.2,25.9z M20.9,26c-0.1-0.1-0.2-0.1-0.3-0.2
		c-1.5-0.8-2.4-2.4-2.4-4.2c0-2.7,2.2-4.9,4.9-4.9s4.9,2.2,4.9,4.9c0,1.8-1,3.4-2.5,4.2c-0.1,0-0.2,0.1-0.2,0.1
		c-0.7,0.3-1.4,0.5-2.2,0.5C22.2,26.5,21.5,26.3,20.9,26z"/>
	<path clip-path="url(#SVGID_2_)" fill="#2E6BE5" d="M32.7,25.3C32.7,25.3,32.7,25.3,32.7,25.3c-1-0.5-1.6-1.5-1.6-2.7
		c0-1.7,1.4-3,3-3c1.7,0,3,1.4,3,3c0,1.7-1.4,3-3,3C33.6,25.7,33.1,25.5,32.7,25.3z M37,25.7c0.8-0.8,1.3-1.8,1.3-3
		c0-2.3-1.9-4.2-4.2-4.2s-4.2,1.9-4.2,4.2c0,1.2,0.5,2.3,1.3,3c-0.9,0.4-1.7,1.1-2.3,1.9c-0.7-0.6-1.5-1.1-2.4-1.5
		c1.3-1.1,2.2-2.8,2.2-4.6c0-3.3-2.7-6-6-6s-6,2.7-6,6c0,1.9,0.9,3.5,2.2,4.6c-3.4,1.5-5.6,4.9-5.6,8.6c0,0.3,0.3,0.6,0.6,0.6
		s0.6-0.3,0.6-0.6c0-3.5,2.3-6.7,5.7-7.8c0.8,0.4,1.7,0.6,2.6,0.6c1,0,1.8-0.2,2.7-0.6c3.3,1.1,5.6,4.3,5.6,7.9
		c0,0.3,0.3,0.6,0.6,0.6s0.6-0.3,0.6-0.6c0-2.4-0.9-4.6-2.4-6.3c0.6-0.9,1.5-1.6,2.6-1.9c0.5,0.2,1.1,0.4,1.7,0.4
		c0.6,0,1.2-0.1,1.7-0.4c2.1,0.7,3.6,2.8,3.6,5c0,0.3,0.3,0.6,0.6,0.6c0.3,0,0.6-0.3,0.6-0.6C40.6,29,39.2,26.7,37,25.7z M20.6,25.7
		c-0.1-0.1-0.2-0.1-0.3-0.2c-1.5-0.8-2.4-2.4-2.4-4.2c0-2.7,2.2-4.9,4.9-4.9s4.9,2.2,4.9,4.9c0,1.8-1,3.4-2.5,4.2
		c-0.1,0-0.2,0.1-0.2,0.1c-0.7,0.3-1.4,0.5-2.2,0.5C22,26.3,21.3,26.1,20.6,25.7z"/>
	<path clip-path="url(#SVGID_2_)" fill="#2D6BE4" d="M32.5,25.1C32.5,25.1,32.4,25.1,32.5,25.1c-1-0.5-1.6-1.5-1.6-2.7
		c0-1.7,1.4-3,3-3c1.7,0,3,1.4,3,3c0,1.7-1.4,3-3,3C33.4,25.4,32.9,25.3,32.5,25.1z M36.7,25.4c0.8-0.8,1.3-1.8,1.3-3
		c0-2.3-1.9-4.2-4.2-4.2s-4.2,1.9-4.2,4.2c0,1.2,0.5,2.3,1.3,3c-0.9,0.4-1.7,1.1-2.3,1.9c-0.7-0.6-1.5-1.1-2.4-1.5
		c1.3-1.1,2.2-2.8,2.2-4.6c0-3.3-2.7-6-6-6s-6,2.7-6,6c0,1.9,0.9,3.5,2.2,4.6c-3.4,1.5-5.6,4.9-5.6,8.6c0,0.3,0.3,0.6,0.6,0.6
		s0.6-0.3,0.6-0.6c0-3.5,2.3-6.7,5.7-7.8c0.8,0.4,1.7,0.6,2.6,0.6c1,0,1.8-0.2,2.7-0.6c3.3,1.1,5.6,4.3,5.6,7.9
		c0,0.3,0.3,0.6,0.6,0.6s0.6-0.3,0.6-0.6c0-2.4-0.9-4.6-2.4-6.3c0.6-0.9,1.5-1.6,2.6-1.9c0.5,0.2,1.1,0.4,1.7,0.4
		c0.6,0,1.2-0.1,1.7-0.4c2.1,0.7,3.6,2.8,3.6,5c0,0.3,0.3,0.6,0.6,0.6s0.6-0.3,0.6-0.6C40.4,28.7,38.9,26.5,36.7,25.4z M20.4,25.5
		c-0.1-0.1-0.2-0.1-0.3-0.2c-1.5-0.8-2.4-2.4-2.4-4.2c0-2.7,2.2-4.9,4.9-4.9s4.9,2.2,4.9,4.9c0,1.8-1,3.4-2.5,4.2
		c-0.1,0-0.2,0.1-0.2,0.1c-0.7,0.3-1.4,0.5-2.2,0.5C21.7,26,21,25.8,20.4,25.5z"/>
	<path clip-path="url(#SVGID_2_)" fill="#2D6AE3" d="M32.2,24.8C32.2,24.8,32.2,24.8,32.2,24.8c-1-0.5-1.6-1.5-1.6-2.7
		c0-1.7,1.4-3,3-3c1.7,0,3,1.4,3,3c0,1.7-1.4,3-3,3C33.1,25.2,32.6,25,32.2,24.8z M36.5,25.2c0.8-0.8,1.3-1.8,1.3-3
		c0-2.3-1.9-4.2-4.2-4.2c-2.3,0-4.2,1.9-4.2,4.2c0,1.2,0.5,2.3,1.3,3c-0.9,0.4-1.7,1.1-2.3,1.9c-0.7-0.6-1.5-1.1-2.4-1.5
		c1.3-1.1,2.2-2.8,2.2-4.6c0-3.3-2.7-6-6-6s-6,2.7-6,6c0,1.9,0.9,3.5,2.2,4.6c-3.4,1.5-5.6,4.9-5.6,8.6c0,0.3,0.3,0.6,0.6,0.6
		s0.6-0.3,0.6-0.6c0-3.5,2.3-6.7,5.7-7.8c0.8,0.4,1.7,0.6,2.6,0.6c1,0,1.8-0.2,2.7-0.6c3.3,1.1,5.6,4.3,5.6,7.9
		c0,0.3,0.3,0.6,0.6,0.6c0.3,0,0.6-0.3,0.6-0.6c0-2.4-0.9-4.6-2.4-6.3c0.6-0.9,1.5-1.6,2.6-1.9c0.5,0.2,1.1,0.4,1.7,0.4
		c0.6,0,1.2-0.1,1.7-0.4c2.1,0.7,3.6,2.8,3.6,5c0,0.3,0.3,0.6,0.6,0.6s0.6-0.3,0.6-0.6C40.1,28.5,38.7,26.2,36.5,25.2z M20.1,25.3
		c-0.1-0.1-0.2-0.1-0.3-0.2c-1.5-0.8-2.4-2.4-2.4-4.2c0-2.7,2.2-4.9,4.9-4.9s4.9,2.2,4.9,4.9c0,1.8-1,3.4-2.5,4.2
		c-0.1,0-0.2,0.1-0.2,0.1c-0.7,0.3-1.4,0.5-2.2,0.5C21.5,25.8,20.8,25.6,20.1,25.3z"/>
	<path clip-path="url(#SVGID_2_)" fill="#2D6AE2" d="M32,24.6C32,24.6,31.9,24.6,32,24.6c-1-0.5-1.6-1.5-1.6-2.7c0-1.7,1.4-3,3-3
		c1.7,0,3,1.4,3,3c0,1.7-1.4,3-3,3C32.9,24.9,32.4,24.8,32,24.6z M36.2,24.9c0.8-0.8,1.3-1.8,1.3-3c0-2.3-1.9-4.2-4.2-4.2
		s-4.2,1.9-4.2,4.2c0,1.2,0.5,2.3,1.3,3c-0.9,0.4-1.7,1.1-2.3,1.9c-0.7-0.6-1.5-1.1-2.4-1.5c1.3-1.1,2.2-2.8,2.2-4.6
		c0-3.3-2.7-6-6-6s-6,2.7-6,6c0,1.9,0.9,3.5,2.2,4.6c-3.4,1.5-5.6,4.9-5.6,8.6c0,0.3,0.3,0.6,0.6,0.6c0.3,0,0.6-0.3,0.6-0.6
		c0-3.5,2.3-6.7,5.7-7.8c0.8,0.4,1.7,0.6,2.6,0.6c1,0,1.8-0.2,2.7-0.6c3.3,1.1,5.6,4.3,5.6,7.9c0,0.3,0.3,0.6,0.6,0.6
		s0.6-0.3,0.6-0.6c0-2.4-0.9-4.6-2.4-6.3c0.6-0.9,1.5-1.6,2.6-1.9c0.5,0.2,1.1,0.4,1.7,0.4c0.6,0,1.2-0.1,1.7-0.4
		c2.1,0.7,3.6,2.8,3.6,5c0,0.3,0.3,0.6,0.6,0.6s0.6-0.3,0.6-0.6C39.9,28.2,38.4,26,36.2,24.9z M19.9,25c-0.1-0.1-0.2-0.1-0.3-0.2
		c-1.5-0.8-2.4-2.4-2.4-4.2c0-2.7,2.2-4.9,4.9-4.9s4.9,2.2,4.9,4.9c0,1.8-1,3.4-2.5,4.2c-0.1,0-0.2,0.1-0.2,0.1
		c-0.7,0.3-1.4,0.5-2.2,0.5C21.3,25.5,20.5,25.3,19.9,25z"/>
	<path clip-path="url(#SVGID_2_)" fill="#2D69E1" d="M31.7,24.3C31.7,24.3,31.7,24.3,31.7,24.3c-1-0.5-1.6-1.5-1.6-2.7
		c0-1.7,1.4-3,3-3c1.7,0,3,1.4,3,3c0,1.7-1.4,3-3,3C32.6,24.7,32.1,24.5,31.7,24.3z M36,24.7c0.8-0.8,1.3-1.8,1.3-3
		c0-2.3-1.9-4.2-4.2-4.2S29,19.4,29,21.7c0,1.2,0.5,2.3,1.3,3c-0.9,0.4-1.7,1.1-2.3,1.9c-0.7-0.6-1.5-1.1-2.4-1.5
		c1.3-1.1,2.2-2.8,2.2-4.6c0-3.3-2.7-6-6-6s-6,2.7-6,6c0,1.9,0.9,3.5,2.2,4.6c-3.4,1.5-5.6,4.9-5.6,8.6c0,0.3,0.3,0.6,0.6,0.6
		s0.6-0.3,0.6-0.6c0-3.5,2.3-6.7,5.7-7.8c0.8,0.4,1.7,0.6,2.6,0.6c1,0,1.8-0.2,2.7-0.6c3.3,1.1,5.6,4.3,5.6,7.9
		c0,0.3,0.3,0.6,0.6,0.6s0.6-0.3,0.6-0.6c0-2.4-0.9-4.6-2.4-6.3c0.6-0.9,1.5-1.6,2.6-1.9c0.5,0.2,1.1,0.4,1.7,0.4
		c0.6,0,1.2-0.1,1.7-0.4c2.1,0.7,3.6,2.8,3.6,5c0,0.3,0.3,0.6,0.6,0.6s0.6-0.3,0.6-0.6C39.6,28,38.2,25.7,36,24.7z M19.6,24.8
		c-0.1-0.1-0.2-0.1-0.3-0.2c-1.5-0.8-2.4-2.4-2.4-4.2c0-2.7,2.2-4.9,4.9-4.9s4.9,2.2,4.9,4.9c0,1.8-1,3.4-2.5,4.2
		c-0.1,0-0.2,0.1-0.2,0.1c-0.7,0.3-1.4,0.5-2.2,0.5C21,25.3,20.3,25.1,19.6,24.8z"/>
	<path clip-path="url(#SVGID_2_)" fill="#2D69E0" d="M31.5,24.1C31.5,24.1,31.4,24.1,31.5,24.1c-1-0.5-1.6-1.5-1.6-2.7
		c0-1.7,1.4-3,3-3c1.7,0,3,1.4,3,3c0,1.7-1.4,3-3,3C32.4,24.4,31.9,24.3,31.5,24.1z M35.7,24.4c0.8-0.8,1.3-1.8,1.3-3
		c0-2.3-1.9-4.2-4.2-4.2s-4.2,1.9-4.2,4.2c0,1.2,0.5,2.3,1.3,3c-0.9,0.4-1.7,1.1-2.3,1.9c-0.7-0.6-1.5-1.1-2.4-1.5
		c1.3-1.1,2.2-2.8,2.2-4.6c0-3.3-2.7-6-6-6s-6,2.7-6,6c0,1.9,0.9,3.5,2.2,4.6c-3.4,1.5-5.6,4.9-5.6,8.6c0,0.3,0.3,0.6,0.6,0.6
		s0.6-0.3,0.6-0.6c0-3.5,2.3-6.7,5.7-7.8c0.8,0.4,1.7,0.6,2.6,0.6c1,0,1.8-0.2,2.7-0.6c3.3,1.1,5.6,4.3,5.6,7.9
		c0,0.3,0.3,0.6,0.6,0.6c0.3,0,0.6-0.3,0.6-0.6c0-2.4-0.9-4.6-2.4-6.3c0.6-0.9,1.5-1.6,2.6-1.9c0.5,0.2,1.1,0.4,1.7,0.4
		c0.6,0,1.2-0.1,1.7-0.4c2.1,0.7,3.6,2.8,3.6,5c0,0.3,0.3,0.6,0.6,0.6s0.6-0.3,0.6-0.6C39.4,27.7,37.9,25.5,35.7,24.4z M19.4,24.5
		c-0.1-0.1-0.2-0.1-0.3-0.2c-1.5-0.8-2.4-2.4-2.4-4.2c0-2.7,2.2-4.9,4.9-4.9s4.9,2.2,4.9,4.9c0,1.8-1,3.4-2.5,4.2
		c-0.1,0-0.2,0.1-0.2,0.1c-0.7,0.3-1.4,0.5-2.2,0.5C20.8,25,20,24.8,19.4,24.5z"/>
	<path clip-path="url(#SVGID_2_)" fill="#2C68E0" d="M31.2,23.8C31.2,23.8,31.2,23.8,31.2,23.8c-1-0.5-1.6-1.5-1.6-2.7
		c0-1.7,1.4-3,3-3c1.7,0,3,1.4,3,3c0,1.7-1.4,3-3,3C32.1,24.2,31.6,24.1,31.2,23.8z M35.5,24.2c0.8-0.8,1.3-1.8,1.3-3
		c0-2.3-1.9-4.2-4.2-4.2s-4.2,1.9-4.2,4.2c0,1.2,0.5,2.3,1.3,3c-0.9,0.4-1.7,1.1-2.3,1.9c-0.7-0.6-1.5-1.1-2.4-1.5
		c1.3-1.1,2.2-2.8,2.2-4.6c0-3.3-2.7-6-6-6s-6,2.7-6,6c0,1.9,0.9,3.5,2.2,4.6c-3.4,1.5-5.6,4.9-5.6,8.6c0,0.3,0.3,0.6,0.6,0.6
		c0.3,0,0.6-0.3,0.6-0.6c0-3.5,2.3-6.7,5.7-7.8c0.8,0.4,1.7,0.6,2.6,0.6c1,0,1.8-0.2,2.7-0.6c3.3,1.1,5.6,4.3,5.6,7.9
		c0,0.3,0.3,0.6,0.6,0.6s0.6-0.3,0.6-0.6c0-2.4-0.9-4.6-2.4-6.3c0.6-0.9,1.5-1.6,2.6-1.9c0.5,0.2,1.1,0.4,1.7,0.4
		c0.6,0,1.2-0.1,1.7-0.4c2.1,0.7,3.6,2.8,3.6,5c0,0.3,0.3,0.6,0.6,0.6s0.6-0.3,0.6-0.6C39.1,27.5,37.7,25.2,35.5,24.2z M19.1,24.3
		c-0.1-0.1-0.2-0.1-0.3-0.2c-1.5-0.8-2.4-2.4-2.4-4.2c0-2.7,2.2-4.9,4.9-4.9s4.9,2.2,4.9,4.9c0,1.8-1,3.4-2.5,4.2
		c-0.1,0-0.2,0.1-0.2,0.1c-0.7,0.3-1.4,0.5-2.2,0.5C20.5,24.8,19.8,24.6,19.1,24.3z"/>
	<path clip-path="url(#SVGID_2_)" fill="#2C68DF" d="M31,23.6C31,23.6,30.9,23.6,31,23.6c-1-0.5-1.6-1.5-1.6-2.7c0-1.7,1.4-3,3-3
		c1.7,0,3,1.4,3,3c0,1.7-1.4,3-3,3C31.9,23.9,31.4,23.8,31,23.6z M35.3,23.9c0.8-0.8,1.3-1.8,1.3-3c0-2.3-1.9-4.2-4.2-4.2
		s-4.2,1.9-4.2,4.2c0,1.2,0.5,2.3,1.3,3c-0.9,0.4-1.7,1.1-2.3,1.9c-0.7-0.6-1.5-1.1-2.4-1.5c1.3-1.1,2.2-2.8,2.2-4.6
		c0-3.3-2.7-6-6-6s-6,2.7-6,6c0,1.9,0.9,3.5,2.2,4.6c-3.4,1.5-5.6,4.9-5.6,8.6c0,0.3,0.3,0.6,0.6,0.6s0.6-0.3,0.6-0.6
		c0-3.5,2.3-6.7,5.7-7.8c0.8,0.4,1.7,0.6,2.6,0.6c1,0,1.8-0.2,2.7-0.6c3.3,1.1,5.6,4.3,5.6,7.9c0,0.3,0.3,0.6,0.6,0.6
		s0.6-0.3,0.6-0.6c0-2.4-0.9-4.6-2.4-6.3c0.6-0.9,1.5-1.6,2.6-1.9c0.5,0.2,1.1,0.4,1.7,0.4c0.6,0,1.2-0.1,1.7-0.4
		c2.1,0.7,3.6,2.8,3.6,5c0,0.3,0.3,0.6,0.6,0.6s0.6-0.3,0.6-0.6C38.9,27.2,37.4,25,35.3,23.9z M18.9,24c-0.1-0.1-0.2-0.1-0.3-0.2
		c-1.5-0.8-2.4-2.4-2.4-4.2c0-2.7,2.2-4.9,4.9-4.9s4.9,2.2,4.9,4.9c0,1.8-1,3.4-2.5,4.2c-0.1,0-0.2,0.1-0.2,0.1
		c-0.7,0.3-1.4,0.5-2.2,0.5C20.3,24.5,19.5,24.3,18.9,24z"/>
	<path clip-path="url(#SVGID_2_)" fill="#2C67DE" d="M30.7,23.3C30.7,23.3,30.7,23.3,30.7,23.3c-1-0.5-1.6-1.5-1.6-2.7
		c0-1.7,1.4-3,3-3c1.7,0,3,1.4,3,3c0,1.7-1.4,3-3,3C31.6,23.7,31.1,23.6,30.7,23.3z M35,23.7c0.8-0.8,1.3-1.8,1.3-3
		c0-2.3-1.9-4.2-4.2-4.2c-2.3,0-4.2,1.9-4.2,4.2c0,1.2,0.5,2.3,1.3,3c-0.9,0.4-1.7,1.1-2.3,1.9c-0.7-0.6-1.5-1.1-2.4-1.5
		c1.3-1.1,2.2-2.8,2.2-4.6c0-3.3-2.7-6-6-6s-6,2.7-6,6c0,1.9,0.9,3.5,2.2,4.6c-3.4,1.5-5.6,4.9-5.6,8.6c0,0.3,0.3,0.6,0.6,0.6
		s0.6-0.3,0.6-0.6c0-3.5,2.3-6.7,5.7-7.8c0.8,0.4,1.7,0.6,2.6,0.6c1,0,1.8-0.2,2.7-0.6c3.3,1.1,5.6,4.3,5.6,7.9
		c0,0.3,0.3,0.6,0.6,0.6s0.6-0.3,0.6-0.6c0-2.4-0.9-4.6-2.4-6.3c0.6-0.9,1.5-1.6,2.6-1.9c0.5,0.2,1.1,0.4,1.7,0.4
		c0.6,0,1.2-0.1,1.7-0.4c2.1,0.7,3.6,2.8,3.6,5c0,0.3,0.3,0.6,0.6,0.6s0.6-0.3,0.6-0.6C38.6,27,37.2,24.7,35,23.7z M18.6,23.8
		c-0.1-0.1-0.2-0.1-0.3-0.2c-1.5-0.8-2.4-2.4-2.4-4.2c0-2.7,2.2-4.9,4.9-4.9s4.9,2.2,4.9,4.9c0,1.8-1,3.4-2.5,4.2
		c-0.1,0-0.2,0.1-0.2,0.1c-0.7,0.3-1.4,0.5-2.2,0.5C20,24.3,19.3,24.1,18.6,23.8z"/>
	<path clip-path="url(#SVGID_2_)" fill="#2C67DD" d="M30.5,23.1C30.5,23.1,30.4,23.1,30.5,23.1c-1-0.5-1.6-1.5-1.6-2.7
		c0-1.7,1.4-3,3-3c1.7,0,3,1.4,3,3c0,1.7-1.4,3-3,3C31.4,23.4,30.9,23.3,30.5,23.1z M34.8,23.4c0.8-0.8,1.3-1.8,1.3-3
		c0-2.3-1.9-4.2-4.2-4.2s-4.2,1.9-4.2,4.2c0,1.2,0.5,2.3,1.3,3c-0.9,0.4-1.7,1.1-2.3,1.9c-0.7-0.6-1.5-1.1-2.4-1.5
		c1.3-1.1,2.2-2.8,2.2-4.6c0-3.3-2.7-6-6-6s-6,2.7-6,6c0,1.9,0.9,3.5,2.2,4.6c-3.4,1.5-5.6,4.9-5.6,8.6c0,0.3,0.3,0.6,0.6,0.6
		s0.6-0.3,0.6-0.6c0-3.5,2.3-6.7,5.7-7.8c0.8,0.4,1.7,0.6,2.6,0.6c1,0,1.8-0.2,2.7-0.6c3.3,1.1,5.6,4.3,5.6,7.9
		c0,0.3,0.3,0.6,0.6,0.6s0.6-0.3,0.6-0.6c0-2.4-0.9-4.6-2.4-6.3c0.6-0.9,1.5-1.6,2.6-1.9c0.5,0.2,1.1,0.4,1.7,0.4
		c0.6,0,1.2-0.1,1.7-0.4c2.1,0.7,3.6,2.8,3.6,5c0,0.3,0.3,0.6,0.6,0.6s0.6-0.3,0.6-0.6C38.4,26.7,36.9,24.5,34.8,23.4z M18.4,23.5
		c-0.1-0.1-0.2-0.1-0.3-0.2c-1.5-0.8-2.4-2.4-2.4-4.2c0-2.7,2.2-4.9,4.9-4.9s4.9,2.2,4.9,4.9c0,1.8-1,3.4-2.5,4.2
		c-0.1,0-0.2,0.1-0.2,0.1c-0.7,0.3-1.4,0.5-2.2,0.5C19.8,24,19,23.8,18.4,23.5z"/>
	<path clip-path="url(#SVGID_2_)" fill="#2C66DC" d="M30.2,22.8C30.2,22.8,30.2,22.8,30.2,22.8c-1-0.5-1.6-1.5-1.6-2.7
		c0-1.7,1.4-3,3-3c1.7,0,3,1.4,3,3c0,1.7-1.4,3-3,3C31.1,23.2,30.6,23.1,30.2,22.8z M34.5,23.2c0.8-0.8,1.3-1.8,1.3-3
		c0-2.3-1.9-4.2-4.2-4.2s-4.2,1.9-4.2,4.2c0,1.2,0.5,2.3,1.3,3c-0.9,0.4-1.7,1.1-2.3,1.9c-0.7-0.6-1.5-1.1-2.4-1.5
		c1.3-1.1,2.2-2.8,2.2-4.6c0-3.3-2.7-6-6-6s-6,2.7-6,6c0,1.9,0.9,3.5,2.2,4.6c-3.4,1.5-5.6,4.9-5.6,8.6c0,0.3,0.3,0.6,0.6,0.6
		c0.3,0,0.6-0.3,0.6-0.6c0-3.5,2.3-6.7,5.7-7.8c0.8,0.4,1.7,0.6,2.6,0.6c1,0,1.8-0.2,2.7-0.6c3.3,1.1,5.6,4.3,5.6,7.9
		c0,0.3,0.3,0.6,0.6,0.6c0.3,0,0.6-0.3,0.6-0.6c0-2.4-0.9-4.6-2.4-6.3c0.6-0.9,1.5-1.6,2.6-1.9c0.5,0.2,1.1,0.4,1.7,0.4
		c0.6,0,1.2-0.1,1.7-0.4c2.1,0.7,3.6,2.8,3.6,5c0,0.3,0.3,0.6,0.6,0.6s0.6-0.3,0.6-0.6C38.1,26.5,36.7,24.2,34.5,23.2z M18.1,23.3
		c-0.1-0.1-0.2-0.1-0.3-0.2c-1.5-0.8-2.4-2.4-2.4-4.2c0-2.7,2.2-4.9,4.9-4.9s4.9,2.2,4.9,4.9c0,1.8-1,3.4-2.5,4.2
		c-0.1,0-0.2,0.1-0.2,0.1c-0.7,0.3-1.4,0.5-2.2,0.5C19.5,23.8,18.8,23.6,18.1,23.3z"/>
	<path clip-path="url(#SVGID_2_)" fill="#2B66DB" d="M30,22.6C30,22.6,30,22.6,30,22.6c-1-0.5-1.6-1.5-1.6-2.7c0-1.7,1.4-3,3-3
		c1.7,0,3,1.4,3,3c0,1.7-1.4,3-3,3C30.9,22.9,30.4,22.8,30,22.6z M34.3,22.9c0.8-0.8,1.3-1.8,1.3-3c0-2.3-1.9-4.2-4.2-4.2
		s-4.2,1.9-4.2,4.2c0,1.2,0.5,2.3,1.3,3c-0.9,0.4-1.7,1.1-2.3,1.9c-0.7-0.6-1.5-1.1-2.4-1.5c1.3-1.1,2.2-2.8,2.2-4.6
		c0-3.3-2.7-6-6-6s-6,2.7-6,6c0,1.9,0.9,3.5,2.2,4.6c-3.4,1.5-5.6,4.9-5.6,8.6c0,0.3,0.3,0.6,0.6,0.6s0.6-0.3,0.6-0.6
		c0-3.5,2.3-6.7,5.7-7.8c0.8,0.4,1.7,0.6,2.6,0.6c1,0,1.8-0.2,2.7-0.6c3.3,1.1,5.6,4.3,5.6,7.9c0,0.3,0.3,0.6,0.6,0.6
		s0.6-0.3,0.6-0.6c0-2.4-0.9-4.6-2.4-6.3c0.6-0.9,1.5-1.6,2.6-1.9c0.5,0.2,1.1,0.4,1.7,0.4c0.6,0,1.2-0.1,1.7-0.4
		c2.1,0.7,3.6,2.8,3.6,5c0,0.3,0.3,0.6,0.6,0.6c0.3,0,0.6-0.3,0.6-0.6C37.9,26.3,36.4,24,34.3,22.9z M17.9,23
		c-0.1-0.1-0.2-0.1-0.3-0.2c-1.5-0.8-2.4-2.4-2.4-4.2c0-2.7,2.2-4.9,4.9-4.9s4.9,2.2,4.9,4.9c0,1.8-1,3.4-2.5,4.2
		c-0.1,0-0.2,0.1-0.2,0.1c-0.7,0.3-1.4,0.5-2.2,0.5C19.3,23.5,18.5,23.3,17.9,23z"/>
	<path clip-path="url(#SVGID_2_)" fill="#2B66DA" d="M29.7,22.3C29.7,22.3,29.7,22.3,29.7,22.3c-1-0.5-1.6-1.5-1.6-2.7
		c0-1.7,1.4-3,3-3s3,1.4,3,3c0,1.7-1.4,3-3,3C30.6,22.7,30.2,22.6,29.7,22.3z M34,22.7c0.8-0.8,1.3-1.8,1.3-3c0-2.3-1.9-4.2-4.2-4.2
		S27,17.4,27,19.7c0,1.2,0.5,2.3,1.3,3c-0.9,0.4-1.7,1.1-2.3,1.9c-0.7-0.6-1.5-1.1-2.4-1.5c1.3-1.1,2.2-2.8,2.2-4.6c0-3.3-2.7-6-6-6
		s-6,2.7-6,6c0,1.9,0.9,3.5,2.2,4.6c-3.4,1.5-5.6,4.9-5.6,8.6c0,0.3,0.3,0.6,0.6,0.6s0.6-0.3,0.6-0.6c0-3.5,2.3-6.7,5.7-7.8
		c0.8,0.4,1.7,0.6,2.6,0.6c1,0,1.8-0.2,2.7-0.6c3.3,1.1,5.6,4.3,5.6,7.9c0,0.3,0.3,0.6,0.6,0.6s0.6-0.3,0.6-0.6
		c0-2.4-0.9-4.6-2.4-6.3c0.6-0.9,1.5-1.6,2.6-1.9c0.5,0.2,1.1,0.4,1.7,0.4c0.6,0,1.2-0.1,1.7-0.4c2.1,0.7,3.6,2.8,3.6,5
		c0,0.3,0.3,0.6,0.6,0.6s0.6-0.3,0.6-0.6C37.6,26,36.2,23.7,34,22.7z M17.6,22.8c-0.1-0.1-0.2-0.1-0.3-0.2c-1.5-0.8-2.4-2.4-2.4-4.2
		c0-2.7,2.2-4.9,4.9-4.9s4.9,2.2,4.9,4.9c0,1.8-1,3.4-2.5,4.2c-0.1,0-0.2,0.1-0.2,0.1c-0.7,0.3-1.4,0.5-2.2,0.5
		C19,23.3,18.3,23.1,17.6,22.8z"/>
	<path clip-path="url(#SVGID_2_)" fill="#2B65D9" d="M29.5,22.1C29.5,22.1,29.5,22.1,29.5,22.1c-1-0.5-1.6-1.5-1.6-2.7
		c0-1.7,1.4-3,3-3s3,1.4,3,3c0,1.7-1.4,3-3,3C30.4,22.4,29.9,22.3,29.5,22.1z M33.8,22.4c0.8-0.8,1.3-1.8,1.3-3
		c0-2.3-1.9-4.2-4.2-4.2s-4.2,1.9-4.2,4.2c0,1.2,0.5,2.3,1.3,3c-0.9,0.4-1.7,1.1-2.3,1.9c-0.7-0.6-1.5-1.1-2.4-1.5
		c1.3-1.1,2.2-2.8,2.2-4.6c0-3.3-2.7-6-6-6s-6,2.7-6,6c0,1.9,0.9,3.5,2.2,4.6c-3.4,1.5-5.6,4.9-5.6,8.6c0,0.3,0.3,0.6,0.6,0.6
		s0.6-0.3,0.6-0.6c0-3.5,2.3-6.7,5.7-7.8c0.8,0.4,1.7,0.6,2.6,0.6c1,0,1.8-0.2,2.7-0.6c3.3,1.1,5.6,4.3,5.6,7.9
		c0,0.3,0.3,0.6,0.6,0.6c0.3,0,0.6-0.3,0.6-0.6c0-2.4-0.9-4.6-2.4-6.3c0.6-0.9,1.5-1.6,2.6-1.9c0.5,0.2,1.1,0.4,1.7,0.4
		c0.6,0,1.2-0.1,1.7-0.4c2.1,0.7,3.6,2.8,3.6,5c0,0.3,0.3,0.6,0.6,0.6s0.6-0.3,0.6-0.6C37.4,25.8,35.9,23.5,33.8,22.4z M17.4,22.5
		c-0.1-0.1-0.2-0.1-0.3-0.2c-1.5-0.8-2.4-2.4-2.4-4.2c0-2.7,2.2-4.9,4.9-4.9s4.9,2.2,4.9,4.9c0,1.8-1,3.4-2.5,4.2
		c-0.1,0-0.2,0.1-0.2,0.1c-0.7,0.3-1.4,0.5-2.2,0.5C18.8,23,18,22.8,17.4,22.5z"/>
	<path clip-path="url(#SVGID_2_)" fill="#2B65D8" d="M29.2,21.8C29.2,21.8,29.2,21.8,29.2,21.8c-1-0.5-1.6-1.5-1.6-2.7
		c0-1.7,1.4-3,3-3s3,1.4,3,3c0,1.7-1.4,3-3,3C30.1,22.2,29.7,22.1,29.2,21.8z M33.5,22.2c0.8-0.8,1.3-1.8,1.3-3
		c0-2.3-1.9-4.2-4.2-4.2c-2.3,0-4.2,1.9-4.2,4.2c0,1.2,0.5,2.3,1.3,3c-0.9,0.4-1.7,1.1-2.3,1.9c-0.7-0.6-1.5-1.1-2.4-1.5
		c1.3-1.1,2.2-2.8,2.2-4.6c0-3.3-2.7-6-6-6s-6,2.7-6,6c0,1.9,0.9,3.5,2.2,4.6c-3.4,1.5-5.6,4.9-5.6,8.6c0,0.3,0.3,0.6,0.6,0.6
		s0.6-0.3,0.6-0.6c0-3.5,2.3-6.7,5.7-7.8c0.8,0.4,1.7,0.6,2.6,0.6c1,0,1.8-0.2,2.7-0.6c3.3,1.1,5.6,4.3,5.6,7.9
		c0,0.3,0.3,0.6,0.6,0.6s0.6-0.3,0.6-0.6c0-2.4-0.9-4.6-2.4-6.3c0.6-0.9,1.5-1.6,2.6-1.9c0.5,0.2,1.1,0.4,1.7,0.4
		c0.6,0,1.2-0.1,1.7-0.4c2.1,0.7,3.6,2.8,3.6,5c0,0.3,0.3,0.6,0.6,0.6s0.6-0.3,0.6-0.6C37.1,25.5,35.7,23.2,33.5,22.2z M17.1,22.3
		c-0.1-0.1-0.2-0.1-0.3-0.2c-1.5-0.8-2.4-2.4-2.4-4.2c0-2.7,2.2-4.9,4.9-4.9s4.9,2.2,4.9,4.9c0,1.8-1,3.4-2.5,4.2
		c-0.1,0-0.2,0.1-0.2,0.1c-0.7,0.3-1.4,0.5-2.2,0.5C18.5,22.8,17.8,22.6,17.1,22.3z"/>
	<path clip-path="url(#SVGID_2_)" fill="#2B64D7" d="M29,21.6C29,21.6,29,21.6,29,21.6c-1-0.5-1.6-1.5-1.6-2.7c0-1.7,1.4-3,3-3
		c1.7,0,3,1.4,3,3c0,1.7-1.4,3-3,3C29.9,21.9,29.4,21.8,29,21.6z M33.3,21.9c0.8-0.8,1.3-1.8,1.3-3c0-2.3-1.9-4.2-4.2-4.2
		s-4.2,1.9-4.2,4.2c0,1.2,0.5,2.3,1.3,3c-0.9,0.4-1.7,1.1-2.3,1.9c-0.7-0.6-1.5-1.1-2.4-1.5c1.3-1.1,2.2-2.8,2.2-4.6
		c0-3.3-2.7-6-6-6s-6,2.7-6,6c0,1.9,0.9,3.5,2.2,4.6c-3.4,1.5-5.6,4.9-5.6,8.6c0,0.3,0.3,0.6,0.6,0.6s0.6-0.3,0.6-0.6
		c0-3.5,2.3-6.7,5.7-7.8c0.8,0.4,1.7,0.6,2.6,0.6c1,0,1.8-0.2,2.7-0.6c3.3,1.1,5.6,4.3,5.6,7.9c0,0.3,0.3,0.6,0.6,0.6
		s0.6-0.3,0.6-0.6c0-2.4-0.9-4.6-2.4-6.3c0.6-0.9,1.5-1.6,2.6-1.9c0.5,0.2,1.1,0.4,1.7,0.4c0.6,0,1.2-0.1,1.7-0.4
		c2.1,0.7,3.6,2.8,3.6,5c0,0.3,0.3,0.6,0.6,0.6s0.6-0.3,0.6-0.6C36.9,25.3,35.4,23,33.3,21.9z M16.9,22c-0.1-0.1-0.2-0.1-0.3-0.2
		c-1.5-0.8-2.4-2.4-2.4-4.2c0-2.7,2.2-4.9,4.9-4.9s4.9,2.2,4.9,4.9c0,1.8-1,3.4-2.5,4.2c-0.1,0-0.2,0.1-0.2,0.1
		c-0.7,0.3-1.4,0.5-2.2,0.5C18.3,22.5,17.5,22.3,16.9,22z"/>
	<path clip-path="url(#SVGID_2_)" fill="#2B64D6" d="M28.7,21.4C28.7,21.3,28.7,21.3,28.7,21.4c-1-0.5-1.6-1.5-1.6-2.7
		c0-1.7,1.4-3,3-3s3,1.4,3,3c0,1.7-1.4,3-3,3C29.6,21.7,29.2,21.6,28.7,21.4z M33,21.7c0.8-0.8,1.3-1.8,1.3-3c0-2.3-1.9-4.2-4.2-4.2
		S26,16.4,26,18.7c0,1.2,0.5,2.3,1.3,3c-0.9,0.4-1.7,1.1-2.3,1.9c-0.7-0.6-1.5-1.1-2.4-1.5c1.3-1.1,2.2-2.8,2.2-4.6c0-3.3-2.7-6-6-6
		s-6,2.7-6,6c0,1.9,0.9,3.5,2.2,4.6c-3.4,1.5-5.6,4.9-5.6,8.6c0,0.3,0.3,0.6,0.6,0.6s0.6-0.3,0.6-0.6c0-3.5,2.3-6.7,5.7-7.8
		c0.8,0.4,1.7,0.6,2.6,0.6c1,0,1.8-0.2,2.7-0.6c3.3,1.1,5.6,4.3,5.6,7.9c0,0.3,0.3,0.6,0.6,0.6c0.3,0,0.6-0.3,0.6-0.6
		c0-2.4-0.9-4.6-2.4-6.3c0.6-0.9,1.5-1.6,2.6-1.9c0.5,0.2,1.1,0.4,1.7,0.4c0.6,0,1.2-0.1,1.7-0.4c2.1,0.7,3.6,2.8,3.6,5
		c0,0.3,0.3,0.6,0.6,0.6s0.6-0.3,0.6-0.6C36.6,25,35.2,22.7,33,21.7z M16.6,21.8c-0.1-0.1-0.2-0.1-0.3-0.2c-1.5-0.8-2.4-2.4-2.4-4.2
		c0-2.7,2.2-4.9,4.9-4.9s4.9,2.2,4.9,4.9c0,1.8-1,3.4-2.5,4.2c-0.1,0-0.2,0.1-0.2,0.1c-0.7,0.3-1.4,0.5-2.2,0.5
		C18,22.3,17.3,22.1,16.6,21.8z"/>
	<path clip-path="url(#SVGID_2_)" fill="#2A63D5" d="M28.5,21.1C28.5,21.1,28.5,21.1,28.5,21.1c-1-0.5-1.6-1.5-1.6-2.7
		c0-1.7,1.4-3,3-3s3,1.4,3,3c0,1.7-1.4,3-3,3C29.4,21.4,28.9,21.3,28.5,21.1z M32.8,21.4c0.8-0.8,1.3-1.8,1.3-3
		c0-2.3-1.9-4.2-4.2-4.2s-4.2,1.9-4.2,4.2c0,1.2,0.5,2.3,1.3,3c-0.9,0.4-1.7,1.1-2.3,1.9c-0.7-0.6-1.5-1.1-2.4-1.5
		c1.3-1.1,2.2-2.8,2.2-4.6c0-3.3-2.7-6-6-6s-6,2.7-6,6c0,1.9,0.9,3.5,2.2,4.6c-3.4,1.5-5.6,4.9-5.6,8.6c0,0.3,0.3,0.6,0.6,0.6
		c0.3,0,0.6-0.3,0.6-0.6c0-3.5,2.3-6.7,5.7-7.8c0.8,0.4,1.7,0.6,2.6,0.6c1,0,1.8-0.2,2.7-0.6c3.3,1.1,5.6,4.3,5.6,7.9
		c0,0.3,0.3,0.6,0.6,0.6s0.6-0.3,0.6-0.6c0-2.4-0.9-4.6-2.4-6.3c0.6-0.9,1.5-1.6,2.6-1.9c0.5,0.2,1.1,0.4,1.7,0.4
		c0.6,0,1.2-0.1,1.7-0.4c2.1,0.7,3.6,2.8,3.6,5c0,0.3,0.3,0.6,0.6,0.6s0.6-0.3,0.6-0.6C36.4,24.8,34.9,22.5,32.8,21.4z M16.4,21.5
		c-0.1-0.1-0.2-0.1-0.3-0.2c-1.5-0.8-2.4-2.4-2.4-4.2c0-2.7,2.2-4.9,4.9-4.9s4.9,2.2,4.9,4.9c0,1.8-1,3.4-2.5,4.2
		c-0.1,0-0.2,0.1-0.2,0.1c-0.7,0.3-1.4,0.5-2.2,0.5C17.8,22,17,21.8,16.4,21.5z"/>
	<path clip-path="url(#SVGID_2_)" fill="#2A63D4" d="M28.2,20.9C28.2,20.8,28.2,20.8,28.2,20.9c-1-0.5-1.6-1.5-1.6-2.7
		c0-1.7,1.4-3,3-3s3,1.4,3,3c0,1.7-1.4,3-3,3C29.1,21.2,28.7,21.1,28.2,20.9z M32.5,21.2c0.8-0.8,1.3-1.8,1.3-3
		c0-2.3-1.9-4.2-4.2-4.2s-4.2,1.9-4.2,4.2c0,1.2,0.5,2.3,1.3,3c-0.9,0.4-1.7,1.1-2.3,1.9c-0.7-0.6-1.5-1.1-2.4-1.5
		c1.3-1.1,2.2-2.8,2.2-4.6c0-3.3-2.7-6-6-6s-6,2.7-6,6c0,1.9,0.9,3.5,2.2,4.6c-3.4,1.5-5.6,4.9-5.6,8.6c0,0.3,0.3,0.6,0.6,0.6
		s0.6-0.3,0.6-0.6c0-3.5,2.3-6.7,5.7-7.8c0.8,0.4,1.7,0.6,2.6,0.6c1,0,1.8-0.2,2.7-0.6c3.3,1.1,5.6,4.3,5.6,7.9
		c0,0.3,0.3,0.6,0.6,0.6s0.6-0.3,0.6-0.6c0-2.4-0.9-4.6-2.4-6.3c0.6-0.9,1.5-1.6,2.6-1.9c0.5,0.2,1.1,0.4,1.7,0.4
		c0.6,0,1.2-0.1,1.7-0.4c2.1,0.7,3.6,2.8,3.6,5c0,0.3,0.3,0.6,0.6,0.6s0.6-0.3,0.6-0.6C36.1,24.5,34.7,22.3,32.5,21.2z M16.1,21.3
		c-0.1-0.1-0.2-0.1-0.3-0.2c-1.5-0.8-2.4-2.4-2.4-4.2c0-2.7,2.2-4.9,4.9-4.9s4.9,2.2,4.9,4.9c0,1.8-1,3.4-2.5,4.2
		c-0.1,0-0.2,0.1-0.2,0.1c-0.7,0.3-1.4,0.5-2.2,0.5C17.5,21.8,16.8,21.6,16.1,21.3z"/>
	<path clip-path="url(#SVGID_2_)" fill="#2A62D3" d="M28,20.6C28,20.6,28,20.6,28,20.6c-1-0.5-1.6-1.5-1.6-2.7c0-1.7,1.4-3,3-3
		s3,1.4,3,3c0,1.7-1.4,3-3,3C28.9,21,28.4,20.8,28,20.6z M32.3,20.9c0.8-0.8,1.3-1.8,1.3-3c0-2.3-1.9-4.2-4.2-4.2s-4.2,1.9-4.2,4.2
		c0,1.2,0.5,2.3,1.3,3c-0.9,0.4-1.7,1.1-2.3,1.9c-0.7-0.6-1.5-1.1-2.4-1.5c1.3-1.1,2.2-2.8,2.2-4.6c0-3.3-2.7-6-6-6s-6,2.7-6,6
		c0,1.9,0.9,3.5,2.2,4.6c-3.4,1.5-5.6,4.9-5.6,8.6c0,0.3,0.3,0.6,0.6,0.6s0.6-0.3,0.6-0.6c0-3.5,2.3-6.7,5.7-7.8
		c0.8,0.4,1.7,0.6,2.6,0.6c1,0,1.8-0.2,2.7-0.6c3.3,1.1,5.6,4.3,5.6,7.9c0,0.3,0.3,0.6,0.6,0.6s0.6-0.3,0.6-0.6
		c0-2.4-0.9-4.6-2.4-6.3c0.6-0.9,1.5-1.6,2.6-1.9c0.5,0.2,1.1,0.4,1.7,0.4c0.6,0,1.2-0.1,1.7-0.4c2.1,0.7,3.6,2.8,3.6,5
		c0,0.3,0.3,0.6,0.6,0.6s0.6-0.3,0.6-0.6C35.9,24.3,34.4,22,32.3,20.9z M15.9,21c-0.1-0.1-0.2-0.1-0.3-0.2c-1.5-0.8-2.4-2.4-2.4-4.2
		c0-2.7,2.2-4.9,4.9-4.9s4.9,2.2,4.9,4.9c0,1.8-1,3.4-2.5,4.2c-0.1,0-0.2,0.1-0.2,0.1c-0.7,0.3-1.4,0.5-2.2,0.5
		C17.3,21.5,16.5,21.4,15.9,21z"/>
	<path clip-path="url(#SVGID_2_)" fill="#2A62D2" d="M27.7,20.4C27.7,20.3,27.7,20.3,27.7,20.4c-1-0.5-1.6-1.5-1.6-2.7
		c0-1.7,1.4-3,3-3s3,1.4,3,3c0,1.7-1.4,3-3,3C28.6,20.7,28.2,20.6,27.7,20.4z M32,20.7c0.8-0.8,1.3-1.8,1.3-3c0-2.3-1.9-4.2-4.2-4.2
		S25,15.4,25,17.7c0,1.2,0.5,2.3,1.3,3c-0.9,0.4-1.7,1.1-2.3,1.9c-0.7-0.6-1.5-1.1-2.4-1.5c1.3-1.1,2.2-2.8,2.2-4.6c0-3.3-2.7-6-6-6
		s-6,2.7-6,6c0,1.9,0.9,3.5,2.2,4.6c-3.4,1.5-5.6,4.9-5.6,8.6c0,0.3,0.3,0.6,0.6,0.6s0.6-0.3,0.6-0.6c0-3.5,2.3-6.7,5.7-7.8
		c0.8,0.4,1.7,0.6,2.6,0.6c1,0,1.8-0.2,2.7-0.6c3.3,1.1,5.6,4.3,5.6,7.9c0,0.3,0.3,0.6,0.6,0.6s0.6-0.3,0.6-0.6
		c0-2.4-0.9-4.6-2.4-6.3c0.6-0.9,1.5-1.6,2.6-1.9c0.5,0.2,1.1,0.4,1.7,0.4c0.6,0,1.2-0.1,1.7-0.4c2.1,0.7,3.6,2.8,3.6,5
		c0,0.3,0.3,0.6,0.6,0.6s0.6-0.3,0.6-0.6C35.6,24,34.2,21.8,32,20.7z M15.6,20.8c-0.1-0.1-0.2-0.1-0.3-0.2c-1.5-0.8-2.4-2.4-2.4-4.2
		c0-2.7,2.2-4.9,4.9-4.9s4.9,2.2,4.9,4.9c0,1.8-1,3.4-2.5,4.2c-0.1,0-0.2,0.1-0.2,0.1c-0.7,0.3-1.4,0.5-2.2,0.5
		C17,21.3,16.3,21.1,15.6,20.8z"/>
	<path clip-path="url(#SVGID_2_)" fill="#2A61D1" d="M27.5,20.1C27.5,20.1,27.5,20.1,27.5,20.1c-1-0.5-1.6-1.5-1.6-2.7
		c0-1.7,1.4-3,3-3s3,1.4,3,3c0,1.7-1.4,3-3,3C28.4,20.5,27.9,20.3,27.5,20.1z M31.8,20.4c0.8-0.8,1.3-1.8,1.3-3
		c0-2.3-1.9-4.2-4.2-4.2s-4.2,1.9-4.2,4.2c0,1.2,0.5,2.3,1.3,3c-0.9,0.4-1.7,1.1-2.3,1.9c-0.7-0.6-1.5-1.1-2.4-1.5
		c1.3-1.1,2.2-2.8,2.2-4.6c0-3.3-2.7-6-6-6s-6,2.7-6,6c0,1.9,0.9,3.5,2.2,4.6c-3.4,1.5-5.6,4.9-5.6,8.6c0,0.3,0.3,0.6,0.6,0.6
		c0.3,0,0.6-0.3,0.6-0.6c0-3.5,2.3-6.7,5.7-7.8c0.8,0.4,1.7,0.6,2.6,0.6c1,0,1.8-0.2,2.7-0.6c3.3,1.1,5.6,4.3,5.6,7.9
		c0,0.3,0.3,0.6,0.6,0.6c0.3,0,0.6-0.3,0.6-0.6c0-2.4-0.9-4.6-2.4-6.3c0.6-0.9,1.5-1.6,2.6-1.9c0.5,0.2,1.1,0.4,1.7,0.4
		c0.6,0,1.2-0.1,1.7-0.4c2.1,0.7,3.6,2.8,3.6,5c0,0.3,0.3,0.6,0.6,0.6s0.6-0.3,0.6-0.6C35.4,23.8,33.9,21.5,31.8,20.4z M15.4,20.5
		c-0.1-0.1-0.2-0.1-0.3-0.2c-1.5-0.8-2.4-2.4-2.4-4.2c0-2.7,2.2-4.9,4.9-4.9s4.9,2.2,4.9,4.9c0,1.8-1,3.4-2.5,4.2
		c-0.1,0-0.2,0.1-0.2,0.1c-0.7,0.3-1.4,0.5-2.2,0.5C16.8,21,16,20.9,15.4,20.5z"/>
	<path clip-path="url(#SVGID_2_)" fill="#2961D0" d="M27.3,19.9C27.2,19.9,27.2,19.8,27.3,19.9c-1-0.5-1.6-1.5-1.6-2.7
		c0-1.7,1.4-3,3-3s3,1.4,3,3c0,1.7-1.4,3-3,3C28.1,20.2,27.7,20.1,27.3,19.9z M31.5,20.2c0.8-0.8,1.3-1.8,1.3-3
		c0-2.3-1.9-4.2-4.2-4.2s-4.2,1.9-4.2,4.2c0,1.2,0.5,2.3,1.3,3c-0.9,0.4-1.7,1.1-2.3,1.9c-0.7-0.6-1.5-1.1-2.4-1.5
		c1.3-1.1,2.2-2.8,2.2-4.6c0-3.3-2.7-6-6-6s-6,2.7-6,6c0,1.9,0.9,3.5,2.2,4.6c-3.4,1.5-5.6,4.9-5.6,8.6c0,0.3,0.3,0.6,0.6,0.6
		S9,29.5,9,29.2c0-3.5,2.3-6.7,5.7-7.8c0.8,0.4,1.7,0.6,2.6,0.6c1,0,1.8-0.2,2.7-0.6c3.3,1.1,5.6,4.3,5.6,7.9c0,0.3,0.3,0.6,0.6,0.6
		s0.6-0.3,0.6-0.6c0-2.4-0.9-4.6-2.4-6.3c0.6-0.9,1.5-1.6,2.6-1.9c0.5,0.2,1.1,0.4,1.7,0.4c0.6,0,1.2-0.1,1.7-0.4
		c2.1,0.7,3.6,2.8,3.6,5c0,0.3,0.3,0.6,0.6,0.6c0.3,0,0.6-0.3,0.6-0.6C35.1,23.5,33.7,21.3,31.5,20.2z M15.1,20.3
		c-0.1-0.1-0.2-0.1-0.3-0.2c-1.5-0.8-2.4-2.4-2.4-4.2c0-2.7,2.2-4.9,4.9-4.9s4.9,2.2,4.9,4.9c0,1.8-1,3.4-2.5,4.2
		c-0.1,0-0.2,0.1-0.2,0.1c-0.7,0.3-1.4,0.5-2.2,0.5C16.5,20.8,15.8,20.6,15.1,20.3z"/>
	<path clip-path="url(#SVGID_2_)" fill="#2960CF" d="M27,19.6C27,19.6,27,19.6,27,19.6c-1-0.5-1.6-1.5-1.6-2.7c0-1.7,1.4-3,3-3
		s3,1.4,3,3c0,1.7-1.4,3-3,3C27.9,20,27.4,19.8,27,19.6z M31.3,19.9c0.8-0.8,1.3-1.8,1.3-3c0-2.3-1.9-4.2-4.2-4.2s-4.2,1.9-4.2,4.2
		c0,1.2,0.5,2.3,1.3,3c-0.9,0.4-1.7,1.1-2.3,1.9c-0.7-0.6-1.5-1.1-2.4-1.5c1.3-1.1,2.2-2.8,2.2-4.6c0-3.3-2.7-6-6-6s-6,2.7-6,6
		c0,1.9,0.9,3.5,2.2,4.6c-3.4,1.5-5.6,4.9-5.6,8.6c0,0.3,0.3,0.6,0.6,0.6s0.6-0.3,0.6-0.6c0-3.5,2.3-6.7,5.7-7.8
		c0.8,0.4,1.7,0.6,2.6,0.6c1,0,1.8-0.2,2.7-0.6c3.3,1.1,5.6,4.3,5.6,7.9c0,0.3,0.3,0.6,0.6,0.6s0.6-0.3,0.6-0.6
		c0-2.4-0.9-4.6-2.4-6.3c0.6-0.9,1.5-1.6,2.6-1.9c0.5,0.2,1.1,0.4,1.7,0.4c0.6,0,1.2-0.1,1.7-0.4c2.1,0.7,3.6,2.8,3.6,5
		c0,0.3,0.3,0.6,0.6,0.6s0.6-0.3,0.6-0.6C34.9,23.3,33.5,21,31.3,19.9z M14.9,20c-0.1-0.1-0.2-0.1-0.3-0.2c-1.5-0.8-2.4-2.4-2.4-4.2
		c0-2.7,2.2-4.9,4.9-4.9s4.9,2.2,4.9,4.9c0,1.8-1,3.4-2.5,4.2c-0.1,0-0.2,0.1-0.2,0.1c-0.7,0.3-1.4,0.5-2.2,0.5
		C16.3,20.5,15.6,20.4,14.9,20z"/>
	<g>
		<g id="icon-users_6_">
			<path fill="#FFFFFF" d="M26.8,19.4C26.7,19.4,26.7,19.3,26.8,19.4c-1-0.5-1.6-1.5-1.6-2.7c0-1.7,1.4-3,3-3s3,1.4,3,3
				c0,1.7-1.4,3-3,3C27.6,19.7,27.2,19.6,26.8,19.4z M31,19.7c0.8-0.8,1.3-1.8,1.3-3c0-2.3-1.9-4.2-4.2-4.2S24,14.4,24,16.7
				c0,1.2,0.5,2.3,1.3,3c-0.9,0.4-1.7,1.1-2.3,1.9c-0.7-0.6-1.5-1.1-2.4-1.5c1.3-1.1,2.2-2.8,2.2-4.6c0-3.3-2.7-6-6-6s-6,2.7-6,6
				c0,1.9,0.9,3.5,2.2,4.6c-3.4,1.5-5.6,4.9-5.6,8.6c0,0.3,0.3,0.6,0.6,0.6c0.3,0,0.6-0.3,0.6-0.6c0-3.5,2.3-6.7,5.7-7.8
				c0.8,0.4,1.7,0.6,2.6,0.6c1,0,1.8-0.2,2.7-0.6c3.3,1.1,5.6,4.3,5.6,7.9c0,0.3,0.3,0.6,0.6,0.6c0.3,0,0.6-0.3,0.6-0.6
				c0-2.4-0.9-4.6-2.4-6.3c0.6-0.9,1.5-1.6,2.6-1.9c0.5,0.2,1.1,0.4,1.7,0.4c0.6,0,1.2-0.1,1.7-0.4c2.1,0.7,3.6,2.8,3.6,5
				c0,0.3,0.3,0.6,0.6,0.6s0.6-0.3,0.6-0.6C34.6,23,33.2,20.8,31,19.7z M14.7,19.8c-0.1-0.1-0.2-0.1-0.3-0.2
				c-1.5-0.8-2.4-2.4-2.4-4.2c0-2.7,2.2-4.9,4.9-4.9s4.9,2.2,4.9,4.9c0,1.8-1,3.4-2.5,4.2c-0.1,0-0.2,0.1-0.2,0.1
				c-0.7,0.3-1.4,0.5-2.2,0.5C16,20.3,15.3,20.1,14.7,19.8z"/>
		</g>
	</g>
</g>
</svg>
