<?xml version="1.0" encoding="utf-8"?>
<!-- Generator: Adobe Illustrator 19.2.1, SVG Export Plug-In . SVG Version: 6.00 Build 0)  -->
<!DOCTYPE svg PUBLIC "-//W3C//DTD SVG 1.1//EN" "http://www.w3.org/Graphics/SVG/1.1/DTD/svg11.dtd">
<svg version="1.1" id="Layer_1" xmlns="http://www.w3.org/2000/svg" xmlns:xlink="http://www.w3.org/1999/xlink" x="0px" y="0px"
	 viewBox="0 0 264.7 86.5" style="enable-background:new 0 0 264.7 86.5;" xml:space="preserve">
<style type="text/css">
	.st0{fill:#FFFFFF;}
</style>
<g id="Intuit_Logo_5_">
	<g>
		<g>
			<g>
				<path class="st0" d="M177.7,80.9h-7c-1.4,0-2.5-0.8-2.6-2.2L168,76c-5,4-11,6.2-17.4,6.2c-12.2,0-17.3-7.7-17.3-19.6V30.4
					c0-1.9,1.1-2.5,2.8-2.5h7.6c1.7,0,2.7,0.5,2.7,2.5v30c0,6,1.5,10.2,8.1,10.2c4.1,0,9.4-2.3,12.7-5.2V30.4c0-1.9,1-2.5,2.7-2.5
					h7.8c1.8,0,2.7,0.5,2.7,2.5v47.5C180.6,80.1,179.9,80.9,177.7,80.9z"/>
			</g>
		</g>
		<path class="st0" d="M0,30c0-1.3,0.7-2.2,2-2.2h9.2c1.3,0,2.1,0.8,2.1,2.2v48.1c0,2-0.9,2.7-2.7,2.7H2.8c-2,0-2.8-0.8-2.8-2.7V30z
			"/>
		<path class="st0" d="M194.3,30c0-1.3,0.7-2.2,2-2.2h9.2c1.3,0,2.1,0.8,2.1,2.2v48.1c0,2-0.9,2.7-2.7,2.7h-7.7
			c-2,0-2.8-0.8-2.8-2.7V30z"/>
		<path class="st0" d="M71.8,80.9H64c-2,0-2.6-1-2.6-2.8V48.3c0-6-1.6-10.3-8.3-10.3c-4.3,0-9.5,2.3-12.9,5.2v34.8
			c0,1.9-0.8,2.7-2.6,2.7h-8c-1.6,0-2.6-0.9-2.6-2.6V30.6c0-1.7,0.8-2.7,2.7-2.7h7.1c1.5,0,2.5,0.4,2.6,2.1l0.1,2.9
			c5-4,11.4-6.3,17.7-6.3c12.2,0,17.3,7.6,17.3,19.5v32C74.5,79.9,73.8,80.9,71.8,80.9z"/>
		<g>
			<g>
				<path class="st0" d="M110.8,12.9c0-4.4-3.6-8-8-8c-4.4,0-8,3.6-8,8s3.6,8,8,8C107.2,20.9,110.8,17.4,110.8,12.9z"/>
			</g>
			<path class="st0" d="M122.2,27.8c1.3,0,2.1,0.4,2.1,1.9v7.7c0,1.3-0.9,2.1-2.2,2.1h-12.7v38.7c0,2-0.9,2.7-2.8,2.7h-7.6
				c-2,0-2.8-0.8-2.8-2.7V39.5H83.4c-1.3,0-2.2-0.8-2.2-2.1v-7.7c0-1.4,0.8-1.9,2.1-1.9C83.3,27.8,122.2,27.8,122.2,27.8z"/>
		</g>
		<g>
			<g>
				<path class="st0" d="M246.3,12.9c0-4.4-3.6-8-8-8c-4.4,0-8,3.6-8,8s3.6,8,8,8C242.7,20.9,246.3,17.4,246.3,12.9z"/>
			</g>
			<path class="st0" d="M257.7,27.8c1.3,0,2.1,0.4,2.1,1.9v7.7c0,1.3-0.9,2.1-2.2,2.1h-12.7v38.7c0,2-0.9,2.7-2.8,2.7h-7.6
				c-2,0-2.8-0.8-2.8-2.7l0-38.7H219c-1.3,0-2.2-0.8-2.2-2.1v-7.7c0-1.4,0.8-1.9,2.1-1.9C218.9,27.8,257.7,27.8,257.7,27.8z"/>
		</g>
	</g>
	<g>
		<path class="st0" d="M261.2,74.2c1.9,0,3.5,1.5,3.5,3.5c0,2-1.6,3.6-3.5,3.6c-1.9,0-3.6-1.5-3.6-3.6
			C257.6,75.7,259.2,74.2,261.2,74.2z M261.2,80.7c1.6,0,2.9-1.3,2.9-3c0-1.7-1.3-3-2.9-3c-1.7,0-2.9,1.3-2.9,3
			C258.2,79.4,259.5,80.7,261.2,80.7z M259.8,75.6h1.6c1,0,1.4,0.4,1.4,1.2c0,0.7-0.5,1.1-1.1,1.1l1.2,1.8h-0.7l-1.1-1.8h-0.7v1.8
			h-0.6L259.8,75.6L259.8,75.6z M260.4,77.5h0.7c0.6,0,1.1,0,1.1-0.7c0-0.6-0.5-0.6-0.9-0.6h-0.9L260.4,77.5L260.4,77.5z"/>
	</g>
</g>
</svg>
